<svg width="60" height="60" viewBox="0 0 60 60" fill="none" xmlns="http://www.w3.org/2000/svg">
  <g clip-path="url(#clip0_198_3840)">
    <path d="M59.9998 28.2321V31.7459C59.8207 32.4651 59.8456 33.2665 59.7488 34.0136C58.0242 47.2248 47.2583 58.0259 34.0251 59.7285C33.278 59.8239 32.4751 59.8019 31.7559 59.9795C30.5905 59.9325 29.4031 60.044 28.2407 59.9795C2.5918 58.5543 -9.51564 26.9948 8.80037 8.73898C27.09 -9.49043 58.5775 2.63022 60.0012 28.2321H59.9998ZM26.6012 11.9475C22.4974 12.6036 18.7678 14.8918 16.0554 17.9814L22.0248 21.501C23.0933 22.0544 24.2146 22.0705 25.2509 21.4365C25.7763 21.115 26.5997 19.979 26.5997 19.3875V11.9489L26.6012 11.9475ZM33.3983 11.9475V19.386C33.3983 19.9775 34.2217 21.115 34.7472 21.435C35.7849 22.069 36.9062 22.0529 37.9733 21.4996L43.9426 17.9799C41.2302 14.8918 37.5021 12.6021 33.3969 11.946L33.3983 11.9475ZM29.0362 23.6953C26.6467 23.983 24.357 26.1142 23.8227 28.442C22.4122 34.5963 29.6952 38.9202 34.279 34.677C38.898 30.4029 35.3211 22.9394 29.0347 23.6938L29.0362 23.6953ZM12.7134 23.8993C11.1913 27.6656 11.1957 32.3242 12.7134 36.0772C14.5158 34.8707 16.6323 33.9563 18.4332 32.7763C20.8315 31.2058 20.8388 28.7737 18.4332 27.1988C16.6323 26.0202 14.5158 25.1058 12.7134 23.8979V23.8993ZM47.2861 23.8993C45.4838 25.1058 43.3673 26.0202 41.5663 27.2003C39.1798 28.762 39.1724 31.2102 41.5663 32.7777C43.3673 33.9563 45.4838 34.8707 47.2861 36.0787C48.8082 32.3125 48.8038 27.6538 47.2861 23.9008V23.8993ZM26.6012 48.0305V40.592C26.6012 40.0005 25.7778 38.863 25.2523 38.543C24.2146 37.909 23.0933 37.9251 22.0262 38.4785L16.0569 41.9981C18.7693 45.0862 22.4974 47.3759 26.6027 48.032L26.6012 48.0305ZM33.3983 48.0305C37.5021 47.3745 41.2317 45.0862 43.9441 41.9966L37.9748 38.477C36.9062 37.9236 35.7849 37.9075 34.7487 38.5416C34.2232 38.863 33.3998 39.999 33.3998 40.5905V48.0291L33.3983 48.0305Z" fill="#295860" />
    <path d="M29.5005 27.557C32.8924 26.9787 33.5074 31.9088 30.5 32.4211C27.108 32.9994 26.4931 28.0692 29.5005 27.557Z" fill="#295860" />
  </g>
  <defs>
    <clipPath id="clip0_198_3840">
      <rect width="60" height="60" fill="white" />
    </clipPath>
  </defs>
</svg>
