<svg width="61" height="60" viewBox="0 0 61 60" fill="none" xmlns="http://www.w3.org/2000/svg">
  <g clip-path="url(#clip0_198_3847)">
    <path d="M42.7853 0C44.437 0.579256 44.3055 2.31389 44.1755 3.79335C43.7403 8.74207 39.7121 12.5902 34.8385 13.1413L34.8432 18.1448C37.6941 19.0763 39.7575 21.4184 40.343 24.3601L54.9121 24.371C57.6299 24.584 59.6103 26.5503 60.1191 29.1804V49.5718C59.6103 52.202 57.6299 54.1683 54.9121 54.3812L42.682 54.389C42.1685 55.5992 41.5939 59.0121 40.5559 59.7025C40.3039 59.8701 39.9845 59.9687 39.6839 60.0016L20.3884 59.9734C19.9313 59.8904 19.3285 59.4348 19.1078 59.0278L17.597 54.3875L5.25574 54.3734C2.4941 54.0822 0.372768 51.9515 0.155155 49.1648C0.53402 42.8039 -0.334865 35.881 0.155155 29.5859C0.369636 26.8399 2.43617 24.7202 5.15085 24.3898L19.9344 24.3601C20.5262 21.3464 22.6162 19.1327 25.4577 18.0853L25.4373 13.1413C20.4792 12.5855 16.4276 8.61526 16.08 3.57887C15.9798 2.12133 15.8937 0.57456 17.4906 0L42.7853 0ZM28.8268 24.4102C18.1231 25.3151 11.8326 37.0254 16.9614 46.5268C22.5708 56.919 37.6127 56.9706 43.2737 46.6035C49.0256 36.0704 40.7094 23.4067 28.8268 24.4117V24.4102ZM48.4933 30.9652C46.4878 31.3033 46.4722 34.4376 48.6984 34.6881C49.417 34.7695 51.2612 34.7742 51.9673 34.6771C54.0902 34.389 54.1058 31.1781 51.8608 30.937C51.1344 30.8587 49.1884 30.8477 48.4917 30.9652H48.4933ZM8.20838 37.528C5.95242 37.8928 6.33754 41.6485 8.97238 41.2211C11.2283 40.8564 10.8432 37.1006 8.20838 37.528ZM8.20838 44.0908C5.95242 44.4556 6.33754 48.2113 8.97238 47.784C11.2283 47.4192 10.8432 43.6634 8.20838 44.0908Z" fill="#295860" />
    <path d="M29.06 28.1597C38.278 27.3378 44.5652 37.3135 39.7183 45.2697C35.5664 52.0846 25.8224 52.4337 21.0725 46.0431C15.8889 39.0701 20.4682 28.9253 29.0615 28.1582L29.06 28.1597ZM29.1774 30.0353C21.9195 30.7429 18.2044 39.4082 22.7633 45.1742C26.5238 49.9319 33.7519 49.9319 37.514 45.1742C42.6349 38.6975 37.359 29.2368 29.1774 30.0353Z" fill="#295860" />
    <path d="M29.4088 33.7831C36.2691 32.9565 38.2589 42.8869 31.7212 44.7702C23.9294 47.0137 21.6343 34.7209 29.4088 33.7831Z" fill="#295860" />
  </g>
  <defs>
    <clipPath id="clip0_198_3847">
      <rect width="60.1174" height="60" fill="white" />
    </clipPath>
  </defs>
</svg>
