<svg width="60" height="49" viewBox="0 0 60 49" fill="none" xmlns="http://www.w3.org/2000/svg">
  <g clip-path="url(#clip0_198_3854)">
    <path d="M59.9365 22.5731V26.4284C59.3809 33.5303 56.5479 40.3357 51.7015 45.5911C50.9944 46.3575 49.1245 48.2679 48.2941 48.7268C46.5709 49.6805 44.8009 47.8262 45.9154 46.231C59.8819 35.227 59.8273 13.7917 45.9325 2.75333C45.2177 1.3111 46.3352 -0.163909 47.9351 0.166992C48.611 0.307469 51.0006 2.66593 51.5844 3.29183C56.3606 8.413 59.526 15.5664 59.935 22.5715L59.9365 22.5731Z" fill="#295860" />
    <path d="M14.1194 0.0577189C22.879 -0.682127 30.6396 5.72831 31.1983 14.5706C31.6073 21.0419 30.8909 27.9221 31.2046 34.4372C29.483 53.7871 1.98221 53.8854 0.126346 34.548C0.411983 28.022 -0.256064 21.1699 0.120103 14.6814C0.554021 7.2002 6.59142 0.692988 14.1194 0.0577189ZM13.4405 28.8821V39.1057C13.4405 39.1634 13.7651 39.6504 13.8463 39.7519C14.4753 40.5245 15.3353 40.5869 16.1673 40.0812C18.5289 37.8211 21.2369 35.7327 23.5486 33.4429C24.4508 32.5501 25.2234 31.7821 24.2494 30.5163L17.8889 24.6022C17.828 24.2573 22.4123 20.4175 23.0226 19.8291C24.7707 18.1449 25.4903 17.5924 23.4893 15.6195C21.1901 13.3515 18.5117 11.2803 16.1673 9.03889C15.4196 8.21944 13.4405 9.11694 13.4405 10.0129V20.2365L9.78337 16.7074C8.14447 15.9082 6.52118 17.7251 7.54666 19.2953C8.11794 20.1694 9.93165 21.6397 10.7573 22.5107C11.3911 23.1803 12.0123 23.9014 12.6148 24.6006L7.59817 29.7562C6.41192 31.4512 8.35519 33.4179 9.99409 32.2707C11.1398 31.4684 12.2355 29.7218 13.4389 28.8821H13.4405Z" fill="#295860" />
    <path d="M41.5645 6.82725C42.5213 6.63214 43.0957 7.15971 43.7606 7.73098C51.8599 14.6987 53.6018 27.0201 48.0701 36.1167C47.1664 37.6042 44.1399 41.4564 42.6352 42.1307C41.1446 42.7988 39.7866 41.4439 40.2705 39.8831C40.4485 39.3118 41.2492 38.8638 41.6566 38.4658C49.8339 30.4477 49.8948 18.735 41.7736 10.6529C41.1664 10.0473 40.2487 9.62899 40.2018 8.6035C40.1691 7.88551 40.8605 6.97085 41.5645 6.82725Z" fill="#295860" />
    <path d="M36.1913 13.4859C37.0622 13.3485 37.5273 13.7621 38.1454 14.2788C44.1547 19.3 44.1547 30.2479 37.8458 35.0038C35.8728 36.4913 33.8312 34.5418 35.0518 32.7937C35.3484 32.3691 35.9041 32.0991 36.2272 31.7479C40.1964 27.4274 40.1231 21.5789 36.2209 17.2553C35.9446 16.9494 35.4561 16.7106 35.1705 16.3188C34.4103 15.2793 34.8739 13.6919 36.1913 13.4843V13.4859Z" fill="#295860" />
    <path d="M16.9463 20.4691V14.5114L20.3318 17.4895L16.9463 20.4691Z" fill="#295860" />
    <path d="M16.9463 34.6057V28.6479L20.3318 31.6276L16.9463 34.6057Z" fill="#295860" />
  </g>
  <defs>
    <clipPath id="clip0_198_3854">
      <rect width="59.9369" height="49" fill="white" />
    </clipPath>
  </defs>
</svg>
