<svg width="33" height="30" viewBox="0 0 33 30" fill="none" xmlns="http://www.w3.org/2000/svg">
  <g clip-path="url(#clip0_27_179)">
    <path d="M30.9453 10.8418V30.0076H2.03897V10.8418H30.9532H30.9453ZM5.54444 13.4522C5.21506 13.5061 4.9798 13.6293 4.90922 13.9758C5.01117 15.2232 4.76022 16.7171 4.90922 17.9337C4.96411 18.388 5.26996 18.5112 5.67775 18.5497C6.55608 18.6267 8.56369 18.6421 9.42633 18.5497C10.038 18.4804 10.0851 18.1801 10.1243 17.6488C10.187 16.771 10.2184 15.0461 10.1243 14.1837C10.0694 13.6755 9.87333 13.483 9.35575 13.4291C8.58721 13.3444 6.29729 13.3367 5.56012 13.4522H5.54444ZM14.6414 13.4522C14.3042 13.5061 14.116 13.6293 14.0689 13.9758C13.967 14.8228 13.967 17.1637 14.0689 18.0107C14.1238 18.4419 14.3669 18.5189 14.7669 18.5497C15.6452 18.6267 17.7234 18.6498 18.586 18.5497C18.9938 18.5035 19.1742 18.2417 19.2134 17.8644C19.2997 16.9866 19.3153 14.8998 19.2134 14.0374C19.1663 13.637 18.8997 13.4676 18.5154 13.4291C17.7783 13.3444 15.3472 13.329 14.6414 13.4445V13.4522ZM23.7384 13.4522C23.409 13.5061 23.2051 13.7217 23.1659 14.0451C23.0718 14.8536 23.0718 17.1329 23.1659 17.9414C23.2129 18.3418 23.4796 18.5189 23.8638 18.5574C24.7422 18.6344 26.8282 18.6575 27.683 18.5574C28.1065 18.5112 28.2711 18.3418 28.3104 17.9491C28.4045 16.9789 28.3966 15.023 28.3104 14.0528C28.2711 13.5985 28.0594 13.4907 27.6124 13.4445C26.8988 13.3675 24.4049 13.3444 23.7384 13.4599V13.4522ZM5.38759 21.2987C5.10527 21.3988 4.9249 21.599 4.89353 21.8916C4.79943 22.7001 4.79943 24.8947 4.89353 25.7109C4.96411 26.3115 5.26996 26.3577 5.81107 26.3962C6.70508 26.4578 8.46958 26.4886 9.34006 26.3962C9.72433 26.3577 9.9596 26.2576 10.0615 25.8803C10.2105 25.3182 10.1713 22.7925 10.1164 22.1072C10.0694 21.5913 9.97528 21.3449 9.41849 21.2833C8.17942 21.1447 6.66587 21.3757 5.39543 21.2987H5.38759ZM14.563 21.2987C14.2493 21.3526 14.1003 21.5066 14.0689 21.8223C13.9591 22.7309 13.9826 24.8639 14.0689 25.7879C14.1003 26.1344 14.1709 26.2576 14.5238 26.35C15.1041 26.4963 17.6685 26.4578 18.3664 26.4039C18.884 26.3577 19.1585 26.2576 19.2134 25.7186C19.2997 24.8408 19.3153 22.754 19.2134 21.8916C19.1742 21.5451 18.9311 21.3218 18.586 21.2756C17.8802 21.1909 15.2296 21.1755 14.563 21.291V21.2987ZM28.1378 26.2345C28.2555 26.1421 28.2947 25.9342 28.3104 25.7956C28.3966 24.9024 28.4123 22.7078 28.3104 21.83C28.279 21.5451 28.1614 21.3911 27.8712 21.3218C27.3301 21.1986 24.4285 21.2217 23.7932 21.291C23.3933 21.3372 23.2129 21.5143 23.1659 21.907C23.0639 22.7848 23.0796 24.8331 23.1659 25.734C23.2208 26.3192 23.5501 26.3808 24.0834 26.4193C25.0088 26.4886 26.5459 26.4886 27.4634 26.4193C27.6359 26.4039 28.0124 26.35 28.1378 26.2499V26.2345Z" fill="#295860" />
    <path d="M2.69772 3.5652V4.96663C2.69772 6.70688 4.80727 7.71561 6.21102 6.69148C6.5404 6.45277 7.09719 5.72895 7.09719 5.32854V3.5652H14.2885V5.18994C14.2885 6.34497 15.653 7.19969 16.7509 7.09959C17.6371 7.02259 18.6958 6.09086 18.6958 5.18994V3.5652H25.8871V5.32854C25.8871 5.72895 26.4439 6.45277 26.7733 6.69148C28.1849 7.71561 30.2866 6.70688 30.2866 4.96663V3.5652H31.9413C32.0197 3.5652 32.5138 3.8963 32.6 3.99641C32.7334 4.15041 32.8745 4.42762 32.9137 4.62782C33.0392 5.34394 33.0157 7.74641 32.9294 8.50103C32.8745 9.01694 32.4746 9.42505 31.9883 9.59446C21.8876 9.81006 11.7476 9.62526 1.63118 9.68686C0.995958 9.70996 0.227422 9.31725 0.0862621 8.67813C-0.0313709 8.13142 -0.0313709 5.19764 0.0705777 4.62012C0.101947 4.41992 0.243106 4.14271 0.384266 3.98871C0.47053 3.8886 0.964589 3.5575 1.04301 3.5575H2.69772V3.5652Z" fill="#295860" />
    <path d="M27.7693 0.046171C28.6162 -0.123233 29.0397 0.37728 29.1103 1.1473C29.1965 2.06363 29.2044 4.05028 29.0946 4.9435C28.9142 6.30644 27.1968 6.23714 27.0635 5.0359C26.9615 4.18888 26.9537 1.68631 27.0635 0.862393C27.1183 0.492783 27.3771 0.123173 27.7693 0.046171Z" fill="#295860" />
    <path d="M15.7864 0.269561C16.3431 -0.284854 17.394 0.0616555 17.5195 0.862477C17.6293 1.5555 17.6136 4.31987 17.5195 5.02829C17.3548 6.24492 15.6452 6.24492 15.4805 5.02829C15.3707 4.21207 15.3786 1.8327 15.4805 1.00108C15.504 0.777775 15.6374 0.431265 15.802 0.269561H15.7864Z" fill="#295860" />
    <path d="M4.58769 0.0462538C5.27781 -0.10775 5.85029 0.231059 5.92871 0.931777C6.02282 1.7865 6.0385 4.28137 5.92871 5.10529C5.77187 6.20642 4.21127 6.17562 3.96816 5.31319C3.7721 4.62018 3.81132 1.9559 3.88974 1.16278C3.92895 0.739272 4.10932 0.161757 4.59554 0.053954L4.58769 0.0462538Z" fill="#295860" />
    <path d="M6.06987 17.3948V14.692L6.17966 14.5842H8.82248L8.93228 14.692V17.287L8.82248 17.3948H6.06987Z" fill="#295860" />
    <path d="M6.06987 22.4385H8.82248L8.93228 22.5463V25.1413L8.82248 25.2491H6.17966L6.06987 25.1413V22.4385Z" fill="#295860" />
    <path d="M18.0371 14.5842H15.2453V17.3948H18.0371V14.5842Z" fill="#295860" />
    <path d="M18.0371 22.4385V25.1413L17.9273 25.2491H15.2453V22.4385H18.0371Z" fill="#295860" />
    <path d="M27.134 14.5842H24.3422V17.3948H27.134V14.5842Z" fill="#295860" />
    <path d="M27.134 22.4385H24.3422V25.2491H27.134V22.4385Z" fill="#295860" />
  </g>
  <defs>
    <clipPath id="clip0_27_179">
      <rect width="33" height="30" fill="white" />
    </clipPath>
  </defs>
</svg>
