<svg width="307" height="637" viewBox="0 0 307 637" fill="none" xmlns="http://www.w3.org/2000/svg">
  <g clip-path="url(#clip0_198_3801)">
    <path d="M288.14 218.4C288.59 183.852 289.053 137.109 288.569 120.943C287.907 99.2347 286.466 83.8628 285.942 78.8113C285.821 77.6353 285.532 76.4841 285.097 75.3918C282.448 68.6988 272.31 43.1276 267.799 32.4566C266.622 29.6826 264.88 27.1786 262.613 25.1927C250.084 14.1742 219.91 4.81575 207.809 1.38392C204.521 0.449934 201.112 -0.0124019 197.696 9.79629e-06L154.679 0.232729L110.841 9.79629e-06C107.991 -0.0217107 105.147 0.366155 102.396 1.14189C91.1398 4.30377 60.6761 13.5598 47.433 24.5845C44.7937 26.7876 42.7506 29.605 41.4154 32.7669C37.2515 42.6404 28.6195 64.3578 25.1232 73.1701C24.083 75.7952 23.4216 78.5351 23.1577 81.3464C22.5118 88.0332 21.3474 102.096 20.7823 120.94C20.2917 137.106 20.7606 183.848 21.2046 218.396C21.2947 225.428 21.3878 231.956 21.4716 237.616C21.6548 250.251 21.7915 258.57 21.7915 258.57L21.3909 448.997C21.3909 448.997 24.0923 568.202 35.1184 596.904C36.2082 599.74 37.236 602.598 38.1116 605.499C39.7232 610.852 44.626 619.32 62.7285 624.908C85.4172 631.933 87.5224 632.519 119.473 635.728C127.953 636.578 136.48 637 145.006 637H164.736C173.005 637 181.267 636.593 189.496 635.762C221.816 632.526 223.844 631.961 246.629 624.908C264.669 619.332 269.59 610.911 271.224 605.552C272.109 602.629 273.136 599.749 274.239 596.901C285.265 568.202 287.966 448.994 287.966 448.994L287.566 258.567C287.566 258.567 287.702 250.248 287.885 237.613C287.96 231.953 288.05 225.425 288.143 218.393L288.14 218.4ZM229.545 20.7089C245.877 28.2646 255.254 34.9173 261.306 40.0495C278.85 53.3517 274.919 82.6713 273.705 82.3641C260.999 46.4012 218.959 30.0798 218.959 30.0798L209.275 11.335C209.275 11.335 213.209 13.1502 229.541 20.7058L229.545 20.7089ZM109.925 6.86989C110.307 6.48823 110.838 6.25241 111.422 6.25241H197.929C199.099 6.25241 200.047 7.20501 200.047 8.3686C200.047 8.95195 199.807 9.48256 199.429 9.87042C199.047 10.2521 198.516 10.4879 197.932 10.4879H111.425C110.255 10.4879 109.307 9.53531 109.307 8.3655C109.307 7.78836 109.547 7.25776 109.925 6.86989ZM109.925 13.324C110.307 12.9423 110.838 12.7065 111.422 12.7065H197.929C199.099 12.7065 200.047 13.6529 200.047 14.8227C200.047 15.406 199.807 15.9304 199.429 16.3183C199.047 16.7 198.516 16.9358 197.932 16.9358H111.425C110.255 16.9358 109.307 15.9832 109.307 14.8196C109.307 14.2331 109.547 13.7056 109.925 13.324ZM109.925 19.7719C110.307 19.3902 110.838 19.1544 111.422 19.1544H197.929C199.099 19.1544 200.047 20.1008 200.047 21.2706C200.047 21.8539 199.807 22.3845 199.429 22.7662C199.047 23.1479 198.516 23.3837 197.932 23.3837H111.425C110.255 23.3837 109.307 22.4373 109.307 21.2675C109.307 20.681 109.547 20.1535 109.925 19.7719ZM154.679 153.871C209.178 153.871 265.833 177.444 265.833 177.444L238.611 288.073C238.611 288.073 195.206 274.469 153.766 274.469C112.326 274.469 71.6493 288.073 71.6493 288.073L43.5144 177.444C43.5144 177.444 98.0547 153.871 154.675 153.871H154.679ZM48.0416 40.0526C54.0902 34.9173 63.4706 28.2677 79.8032 20.7121C96.1358 13.1564 100.07 11.3412 100.07 11.3412L90.3914 30.086C90.3914 30.086 48.3459 46.4074 35.64 82.3703C34.429 82.6775 30.5011 53.358 48.0385 40.0557L48.0416 40.0526ZM38.0495 408.001L33.0752 235.047C33.7614 234.892 34.1496 234.802 34.1496 234.802V219.085L32.6126 218.998L32.6064 218.781L41.5427 220.032C43.9988 220.373 45.9923 222.182 46.5667 224.596C50.6219 241.734 64.8275 295.51 66.644 323.319C68.1003 345.66 69.2088 415.252 69.2088 415.252L38.0526 408.004L38.0495 408.001ZM68.9417 427.636C68.9417 427.636 66.9824 515.607 60.468 511.061C54.9969 507.239 49.0756 508.722 43.3654 490.747C42.1078 486.797 41.3999 482.673 41.2415 478.524C40.6019 461.964 38.6892 422.799 38.6892 422.799L68.9386 427.633L68.9417 427.636ZM89.6028 625.637C79.2257 624.421 57.2357 620.188 44.1975 604.63C41.1142 600.95 39.4965 596.271 39.4965 591.471V575.652C39.4965 574.672 40.8317 574.386 41.2322 575.277C45.6911 585.308 59.4309 610.327 90.0623 623.983C90.9597 624.383 90.5871 625.752 89.6059 625.637H89.6028ZM193.756 616.434C179.513 617.02 156.203 616.468 154.713 616.434H154.638C153.142 616.468 129.838 617.02 115.595 616.434C100.874 615.829 97.8529 613.408 92.8103 610.783C71.4351 602.126 58.7354 558.797 58.7354 558.797C59.7415 556.783 62.3621 559.408 67.6035 563.842C72.851 568.276 84.141 570.684 84.141 570.684L154.641 570.29H154.716L225.222 570.684C225.222 570.684 236.512 568.276 241.754 563.842C247.001 559.408 249.622 556.783 250.628 558.797C250.628 558.797 237.922 602.126 216.553 610.783C211.51 613.408 208.483 615.829 193.762 616.434H193.756ZM269.854 591.468C269.854 596.268 268.234 600.947 265.15 604.627C252.118 620.188 230.122 624.418 219.751 625.634C218.764 625.749 218.391 624.383 219.295 623.98C249.92 610.324 263.66 585.302 268.125 575.273C268.519 574.383 269.854 574.668 269.854 575.649V591.468ZM268.106 478.527C267.951 482.676 267.243 486.797 265.989 490.75C260.272 508.725 254.357 507.242 248.88 511.065C242.375 515.607 240.412 427.639 240.412 427.639L270.655 422.805C270.655 422.805 268.743 461.97 268.103 478.53L268.106 478.527ZM276.741 218.995L275.195 219.082V234.799C275.195 234.799 275.583 234.889 276.279 235.044L271.304 407.998L240.148 415.246C240.148 415.246 241.251 345.654 242.707 323.313C244.523 295.504 258.735 241.73 262.79 224.59C263.362 222.176 265.349 220.367 267.805 220.026L276.748 218.775L276.741 218.992V218.995Z" fill="url(#paint0_linear_198_3801)" />
    <path d="M30.2432 219.085V234.802C30.2432 234.802 29.8551 234.892 29.1689 235.047C27.1475 235.497 22.5396 236.524 17.5653 237.616C9.43316 239.403 0.332241 241.355 0 241.246C2.17043 224.463 10.4951 219.526 17.2983 218.396C22.4992 217.525 26.8122 218.887 26.8122 218.887L28.7031 218.995L30.2401 219.082L30.2432 219.085Z" fill="url(#paint1_linear_198_3801)" />
    <path d="M307 241.25C306.667 241.358 297.566 239.406 289.434 237.619C284.466 236.524 279.858 235.497 277.831 235.05C277.135 234.895 276.747 234.805 276.747 234.805V219.088L278.293 219.002L280.178 218.893C280.178 218.893 284.494 217.534 289.692 218.403C296.498 219.526 304.826 224.463 307 241.253V241.25Z" fill="url(#paint2_linear_198_3801)" />
  </g>
  <defs>
    <linearGradient id="paint0_linear_198_3801" x1="154.674" y1="-0.000854492" x2="154.674" y2="637" gradientUnits="userSpaceOnUse">
      <stop stop-color="#295860" />
      <stop offset="1" stop-color="#15272A" />
    </linearGradient>
    <linearGradient id="paint1_linear_198_3801" x1="15.1216" y1="218.105" x2="15.1216" y2="241.251" gradientUnits="userSpaceOnUse">
      <stop stop-color="#295860" />
      <stop offset="1" stop-color="#15272A" />
    </linearGradient>
    <linearGradient id="paint2_linear_198_3801" x1="291.873" y1="218.113" x2="291.873" y2="241.254" gradientUnits="userSpaceOnUse">
      <stop stop-color="#295860" />
      <stop offset="1" stop-color="#15272A" />
    </linearGradient>
    <clipPath id="clip0_198_3801">
      <rect width="307" height="637" fill="white" />
    </clipPath>
  </defs>
</svg>
