<svg width="61" height="46" viewBox="0 0 61 46" fill="none" xmlns="http://www.w3.org/2000/svg">
  <g clip-path="url(#clip0_198_3864)">
    <path d="M60.2801 26.159V44.7241C59.662 45.8926 58.7481 46.3635 57.4971 45.688L43.5516 35.4437L8.4552 35.4467C4.05637 35.1259 0.483159 31.5762 0.179995 27.1626C-0.0701894 23.5158 -0.049586 18.003 0.179995 14.3444C0.386028 11.0479 3.53393 6.59605 5.53835 3.96323C7.25579 1.71158 9.4574 0.392961 12.3272 0.185456C21.7562 0.641674 31.7282 -0.401741 41.0954 0.185456C45.5428 0.465073 49.1793 3.98972 49.4868 8.47096C49.7135 11.7793 49.2602 15.3098 49.5398 18.6402L59.8606 25.4629L60.2801 26.1604V26.159ZM41.9298 7.74984C41.765 7.58501 41.4353 7.47022 41.2337 7.33042L12.6789 7.23476C11.9916 7.2377 11.5148 7.77339 11.1204 8.25904C10.5199 8.99782 7.36322 13.7322 7.25431 14.3768C7.4942 18.3076 6.8393 22.83 7.22047 26.6932C7.30141 27.5085 7.77381 28.0456 8.51406 28.337L40.7422 28.3974C41.5575 28.3164 42.0932 27.844 42.3831 27.1023L42.3478 8.44594C42.208 8.24432 42.0932 7.91467 41.9283 7.74984H41.9298Z" fill="#295860" />
    <path d="M38.918 10.7653V24.8653H33.049C33.3963 23.4275 35.2801 21.1067 35.4022 19.7542C35.5597 18.0044 33.3595 17.1229 32.2455 18.4798L29.0578 24.8653H22.4854L29.411 10.7653H38.918Z" fill="#295860" />
    <path d="M16.6171 10.7653C16.8275 10.9522 14.3404 15.0346 14.2639 15.8764C14.1064 17.6262 16.3065 18.5077 17.4206 17.1508L20.6082 10.7653H25.4206L18.4949 24.8653H10.748V15.1714L13.7414 10.7653H16.6171Z" fill="#295860" />
  </g>
  <defs>
    <clipPath id="clip0_198_3864">
      <rect width="60.2796" height="46" fill="white" />
    </clipPath>
  </defs>
</svg>
