<svg width="56" height="37" viewBox="0 0 56 37" fill="none" xmlns="http://www.w3.org/2000/svg">
  <g clip-path="url(#clip0_183_710)">
    <path d="M36.7222 9.04082C37.3047 9.66533 36.7144 11.8274 37.2953 12.994C38.529 15.4722 41.2532 14.2018 43.2048 14.6293C43.8824 14.7774 43.9509 15.466 43.993 16.0295C44.4603 22.386 43.6301 29.2845 43.993 35.6976C43.9463 36.2427 43.8621 36.7313 43.2952 36.9573L21.6681 37.0015C21.436 36.9924 21.302 36.8473 21.1338 36.7252C19.4391 35.4899 17.8239 33.0835 16.1262 31.8055C14.6122 30.6649 11.9471 31.3825 10.117 31.1825C9.54378 31.1199 9.12479 30.8176 9.12012 30.2144L9.21513 13.1497C9.38647 12.8276 9.63724 12.7023 9.9986 12.6611C12.12 12.4183 15.0701 13.4032 15.9486 10.6074C16.1729 9.89589 15.8832 8.966 16.8863 8.78278L36.3219 8.80721C36.448 8.87286 36.6287 8.94157 36.7206 9.04082H36.7222Z" fill="#295860" />
    <path d="M50.5998 18.5153C51.0578 18.4145 52.6247 18.442 53.1387 18.4924C54.5047 18.6283 55.7025 19.7307 55.8676 21.0759C56.2648 24.3374 55.62 28.3287 55.852 31.665C55.391 33.8592 53.2851 34.3234 51.2712 34.1539C50.6372 34.1004 50.0843 33.9829 49.941 33.2866L49.9316 19.3459C49.9394 18.9673 50.2151 18.5993 50.5998 18.5153Z" fill="#295860" />
    <path d="M16.789 0L37.4301 0.0610763C38.3195 0.624505 38.0267 1.85061 36.9379 1.92085L17.1145 1.91779C15.9214 1.91169 15.7314 0.371038 16.789 0Z" fill="#295860" />
    <path d="M0.420676 12.9268C0.953372 12.3572 2.13558 12.684 2.13402 13.5162V29.2937C1.98605 30.5396 0.148098 30.4328 0.149656 29.1761C0.496998 24.2091 -0.312948 18.6359 0.143425 13.7406C0.168347 13.4749 0.233766 13.1237 0.420676 12.9253V12.9268Z" fill="#295860" />
    <path d="M29.9977 3.86157H24.0508V6.83293H29.9977V3.86157Z" fill="#295860" />
    <path d="M47.9516 22.3768H45.9688V30.1488H47.9516V22.3768Z" fill="#295860" />
    <path d="M7.14435 19.52H4.11328V23.4059H7.14435V19.52Z" fill="#295860" />
  </g>
  <defs>
    <clipPath id="clip0_183_710">
      <rect width="56" height="37" fill="white" />
    </clipPath>
  </defs>
</svg>
