<svg width="60" height="60" viewBox="0 0 60 60" fill="none" xmlns="http://www.w3.org/2000/svg">
  <g clip-path="url(#clip0_198_3806)">
    <path d="M29.3947 59.9838C27.1506 59.6754 25.5894 57.3741 25.8758 55.177L23.8403 57.0436L21.4287 54.6321L25.8523 50.0529L25.8229 44.0344L22.9106 42.8829L18.606 47.1464V53.419H15.0886V50.7226C10.7047 55.3605 4.58633 49.2422 9.22577 44.8612H6.52934V41.3438H12.8034L17.0683 37.0407L15.9155 34.1298L9.89548 34.1005L5.31477 38.5225L2.90326 36.111L4.77138 34.077C-1.58785 34.4632 -1.58785 25.481 4.77138 25.8687L2.90326 23.8346L5.31477 21.4231L9.89548 25.8452L15.9155 25.8158L17.0683 22.905L12.8034 18.6018H6.52934V15.0844H9.22577C4.58633 10.7035 10.7062 4.58511 15.0886 9.22309V6.52665H18.606V12.7992L22.9106 17.0627L25.8229 15.9113L25.8523 9.89279L21.4287 5.31355L23.8403 2.90204L25.8758 4.76869C25.4881 -1.58907 34.4732 -1.58907 34.087 4.76869L36.1225 2.90204L38.534 5.31355L34.1105 9.89279L34.1399 15.9113L37.0522 17.0627L41.3568 12.7992V6.52665H44.8742V9.22309C49.2566 4.58511 55.3765 10.702 50.737 15.0844H53.4334V18.6018H47.1594L42.8944 22.905L44.0473 25.8158L50.0673 25.8452L54.648 21.4231L57.0595 23.8346L55.1914 25.8687C57.3885 25.5823 59.6913 27.1435 59.9997 29.3861V30.5581C59.5254 32.8785 57.5545 34.3075 55.1914 34.0755L57.0595 36.1096L54.648 38.5211L50.0673 34.099L44.0473 34.1284L42.8944 37.0392L47.1594 41.3423H53.4334V44.8597H50.737C55.3765 49.2422 49.2566 55.3591 44.8742 50.7211V53.4175H41.3568V47.145L37.0522 42.8815L34.1399 44.0329L34.1105 50.0514L38.534 54.6306L36.1225 57.0421L34.087 55.1755C34.319 57.5385 32.8886 59.508 30.5681 59.9824C30.1951 59.9471 29.756 60.0323 29.3961 59.9824L29.3947 59.9838ZM29.4857 25.9025C24.344 26.4591 24.9388 34.4059 30.2729 34.074C35.6584 33.7392 35.1048 25.2945 29.4857 25.9025Z" fill="#295860" />
  </g>
  <defs>
    <clipPath id="clip0_198_3806">
      <rect width="60" height="60" fill="white" />
    </clipPath>
  </defs>
</svg>
