<svg width="31" height="37" viewBox="0 0 31 37" fill="none" xmlns="http://www.w3.org/2000/svg">
  <g clip-path="url(#clip0_181_707)">
    <path d="M0.634876 37C0.38558 36.8616 0.10808 36.6943 0.0580386 36.3822C-0.0283961 35.8432 -0.00837963 34.0687 0.0534894 33.4971C0.208162 32.0617 1.65116 30.7892 3.10509 30.8624V3.16826C3.21154 1.71662 3.98581 0.541745 5.42699 0.132031C11.0926 -0.0443359 16.8382 -0.0443359 22.5037 0.132031C23.8685 0.507376 24.7237 1.61985 24.8293 3.01993L24.8266 23.1348H25.9529C26.3915 23.1348 27.1767 23.6892 27.4423 24.0375C28.2321 25.0758 27.7817 26.0517 27.9555 27.1388C28.0765 27.8967 29.2393 27.9637 29.4431 27.1813L29.4767 13.8923C27.5879 13.8181 26.4688 12.4985 26.3505 10.6815C26.3169 10.1587 26.2841 8.54248 26.4834 8.13548L29.1092 5.41671L26.6144 2.90868C25.9811 2.07116 26.8318 1.17124 27.728 1.80164C28.2803 2.18965 30.2328 4.15953 30.6777 4.71938C30.7978 4.87043 30.968 5.07393 30.9998 5.26567L31.0025 27.2862C30.4212 30.1162 26.6007 29.92 26.3551 26.9244C26.245 25.585 26.8473 24.487 24.8284 24.6507V30.8615C26.255 30.81 27.5888 31.9215 27.8618 33.2981C27.9791 33.8878 28.0528 36.0051 27.8563 36.508C27.7335 36.8227 27.5697 36.8544 27.2977 37H0.634876ZM6.78811 3.14655C6.39506 3.30031 6.26222 3.56079 6.22492 3.95874C5.95197 6.86292 6.43418 10.184 6.22765 13.1325C6.24949 13.5341 6.56702 13.9013 6.98737 13.8941L21.2454 13.8353L21.6831 13.4039L21.6612 3.56802C21.5302 3.33558 21.3091 3.1167 21.0152 3.12665L6.7872 3.14655H6.78811Z" fill="#295860" />
  </g>
  <defs>
    <clipPath id="clip0_181_707">
      <rect width="31" height="37" fill="white" />
    </clipPath>
  </defs>
</svg>
