<svg width="61" height="61" viewBox="0 0 61 61" fill="none" xmlns="http://www.w3.org/2000/svg">
  <g clip-path="url(#clip0_198_3814)">
    <path d="M46.9559 23.735L46.6783 26.0898C44.8956 25.6791 43.1475 25.0722 41.4398 24.4198C39.3096 23.6066 36.2622 22.3756 34.5039 20.9584C33.8127 20.4021 32.7091 18.4914 31.8973 19.4199C31.1322 20.2959 33.1033 21.802 33.761 22.2926C37.2209 24.875 42.281 26.3498 46.3823 27.5727L45.7854 30.8358C42.6458 30.1055 38.0509 29.7161 35.3927 27.7851C34.9863 27.4897 34.1917 26.4135 33.8158 26.3771C31.7443 27.1145 34.1482 28.7997 35.1352 29.3772C38.0945 31.1089 42.0053 31.6774 45.3497 32.2357C45.6648 32.4401 45.2736 33.4465 45.2767 33.8107C45.1216 34.0403 42.0803 33.9695 41.5452 33.9573C38.1056 33.8794 34.0367 34.0706 30.7055 33.7995C21.1387 33.0197 22.2383 20.8097 24.7212 14.3331C26.594 9.44748 30.1643 5.83235 35.8315 7.47099C41.5027 9.11065 43.9308 15.2121 47.7971 19.1266C47.8285 19.5737 47.4211 22.1884 47.1961 22.2329C43.1049 20.3434 39.0481 18.0736 35.7514 14.9673C35.2133 14.4595 33.0972 11.8882 32.854 11.776C32.3686 11.5534 32.022 11.7568 31.7372 12.1502C31.5041 12.6863 32.5479 13.7858 32.929 14.2228C36.5652 18.3953 41.8989 21.5785 46.9559 23.734V23.735Z" fill="#295860" />
    <path d="M11.4541 55.9071C15.1937 55.7018 17.4537 52.1018 16.3774 48.5929L18.1509 46.6437C23.7441 45.964 29.5794 44.7016 35.1776 44.205C44.6421 43.3664 46.1278 55.2709 37.3464 57.0501C29.6919 56.6313 21.1588 57.749 13.6026 57.0966C12.7655 57.0238 11.7886 56.7487 11.4531 55.9061L11.4541 55.9071Z" fill="#295860" />
    <path d="M15.1176 46.7631C12.4999 44.7269 9.90856 44.4245 7.29491 46.7084L0.0265577 23.0331C-0.375776 18.9446 3.87052 16.1407 7.51888 18.0757C10.7406 19.7841 9.64912 23.0523 9.9866 26.1455C10.5835 31.6289 12.5759 35.6921 15.9172 39.9556C17.1293 41.5022 17.9177 41.7227 17.5255 44.0907C17.3887 44.9211 16.5314 46.7347 15.7642 47.0817C15.2352 47.3214 15.3244 46.9239 15.1176 46.7631Z" fill="#295860" />
    <path d="M60.351 15.2606V45.0768H55.298L53.6593 40.8528C54.1559 33.5335 53.0117 25.3666 53.6573 18.1475C53.7576 17.0237 54.4224 16.0992 55.4389 15.6238C55.6051 15.5459 56.3125 15.2606 56.4128 15.2606H60.351Z" fill="#295860" />
    <path d="M4.58443 0.0232276C7.09876 -0.242799 9.4854 1.77516 9.50567 4.34136C9.51378 5.38827 8.99896 8.72523 8.74154 9.80856C7.6369 14.4423 0.903637 14.2471 0.0776873 9.77821C-0.158443 8.50675 0.592512 3.2904 1.22186 2.15549C1.84005 1.04182 3.3146 0.157758 4.58443 0.0232276Z" fill="#295860" />
    <path d="M52.0275 38.6983C50.8134 37.4106 49.4625 36.3667 48.0032 35.3724C47.6698 35.1448 46.9695 34.9688 46.855 34.5905L46.8154 34.0261C47.8684 29.6534 47.99 24.0992 49.3085 19.8883C49.7139 18.5946 50.7962 17.754 52.1765 17.7823C52.2332 17.9421 52.0285 18.106 52.0285 18.1525V38.6973L52.0275 38.6983Z" fill="#295860" />
    <path d="M11.107 46.6173C16.2562 46.5445 16.4082 54.1945 11.3836 54.4292C6.11984 54.675 5.84622 46.6922 11.107 46.6173Z" fill="#295860" />
    <path d="M36.1254 58.5754C35.26 60.1777 33.1591 60.6966 31.4505 60.8078C27.9217 61.0374 22.0124 61.0981 18.5322 60.7815C17.4033 60.6794 16.0503 60.2647 15.1646 59.5434C14.9102 59.3361 14.4521 58.9274 14.4258 58.5754H36.1244H36.1254Z" fill="#295860" />
    <path d="M60.0538 46.7084L57.1554 56.2034C57.0844 52.9868 56.6101 49.8319 55.8916 46.7084H60.0528H60.0538Z" fill="#295860" />
    <path d="M7.14331 16.2984C5.56032 15.7057 3.8162 16.001 2.23828 16.4471V14.3705C3.87903 14.8843 5.60593 14.9116 7.14331 14.0741V16.2994V16.2984Z" fill="#295860" />
  </g>
  <defs>
    <clipPath id="clip0_198_3814">
      <rect width="60.3511" height="61" fill="white" />
    </clipPath>
  </defs>
</svg>
