<svg width="13" height="17" viewBox="0 0 13 17" fill="none" xmlns="http://www.w3.org/2000/svg">
  <path d="M12.0061 8.31574C11.969 8.22084 11.904 8.13939 11.8197 8.08208C11.7354 8.02477 11.6358 7.99429 11.5339 7.99463H8.74778L9.55528 1.51102C9.56628 1.40928 9.54613 1.3066 9.4975 1.21657C9.44887 1.12653 9.37405 1.05338 9.28293 1.0068C9.19182 0.960219 9.08871 0.942401 8.98724 0.955704C8.88578 0.969007 8.79075 1.0128 8.71472 1.0813L1.12139 8.13158C1.04763 8.20084 0.996358 8.29066 0.974227 8.3894C0.952096 8.48814 0.960121 8.59125 0.997263 8.68537C1.0344 8.7795 1.09895 8.8603 1.18254 8.91733C1.26614 8.97435 1.36492 9.00495 1.46611 9.00519H4.25694L3.44472 15.4888C3.43221 15.5911 3.45129 15.6948 3.4994 15.786C3.54752 15.8771 3.62236 15.9514 3.71389 15.9988C3.80625 16.044 3.91005 16.0606 4.01189 16.0463C4.11373 16.0319 4.20896 15.9875 4.28528 15.9185L11.8786 8.86824C11.9527 8.79947 12.0044 8.71006 12.0272 8.61156C12.0499 8.51307 12.0426 8.41002 12.0061 8.31574ZM4.61111 14.2421L5.31944 8.57546C5.32813 8.50454 5.32167 8.43258 5.30049 8.36434C5.27931 8.29609 5.24391 8.23312 5.1966 8.17956C5.1493 8.12601 5.09117 8.0831 5.02606 8.05366C4.96095 8.02423 4.89034 8.00894 4.81889 8.0088H2.72222L8.38889 2.75769L7.68055 8.42435C7.67187 8.49528 7.67833 8.56724 7.69951 8.63548C7.72068 8.70373 7.75609 8.7667 7.8034 8.82026C7.8507 8.87381 7.90883 8.91672 7.97394 8.94615C8.03904 8.97559 8.10966 8.99088 8.18111 8.99102H10.2778L4.61111 14.2421Z" fill="white" />
</svg>
