<svg width="19" height="18" viewBox="0 0 19 18" fill="none" xmlns="http://www.w3.org/2000/svg">
<path d="M9.0332 0C14.0039 0 18.0332 4.0293 18.0332 9C18.0332 13.9707 14.0039 18 9.0332 18C4.0625 18 0.0332031 13.9707 0.0332031 9C0.0332031 4.0293 4.0625 0 9.0332 0ZM9.0332 3.6C8.79451 3.6 8.56559 3.69482 8.39681 3.8636C8.22802 4.03239 8.1332 4.2613 8.1332 4.5V9C8.13325 9.23868 8.22811 9.46756 8.3969 9.6363L11.0969 12.3363C11.2666 12.5002 11.494 12.591 11.73 12.5889C11.9659 12.5869 12.1917 12.4922 12.3585 12.3253C12.5254 12.1585 12.6201 11.9327 12.6221 11.6968C12.6242 11.4608 12.5334 11.2334 12.3695 11.0637L9.9332 8.6274V4.5C9.9332 4.2613 9.83838 4.03239 9.6696 3.8636C9.50082 3.69482 9.2719 3.6 9.0332 3.6Z" fill="#AAAAAA"/>
</svg>
