<svg width="22" height="23" viewBox="0 0 22 23" fill="none" xmlns="http://www.w3.org/2000/svg">
  <path d="M19.5781 7.73536C19.4035 7.55943 19.1958 7.41984 18.9669 7.32466C18.7381 7.22947 18.4926 7.18058 18.2448 7.1808H15.1003V4.03631C15.1003 3.53561 14.9014 3.05543 14.5473 2.70138C14.1933 2.34734 13.7131 2.14844 13.2124 2.14844H3.14178C2.64108 2.14844 2.1609 2.34734 1.80685 2.70138C1.45281 3.05543 1.25391 3.53561 1.25391 4.03631V14.1069C1.25605 14.607 1.45532 15.0861 1.80847 15.4402C1.98306 15.6162 2.19078 15.7558 2.41963 15.8509C2.64848 15.9461 2.89392 15.995 3.14178 15.9948H6.28627V19.1393C6.28627 19.64 6.48517 20.1202 6.83921 20.4742C7.19325 20.8283 7.67344 21.0272 8.17414 21.0272H18.2448C18.7449 21.025 19.224 20.8258 19.5781 20.4726C19.754 20.298 19.8936 20.0903 19.9888 19.8614C20.084 19.6326 20.1328 19.3871 20.1326 19.1393V9.07457C20.1336 8.82572 20.0851 8.57916 19.9899 8.34924C19.8947 8.11933 19.7547 7.91065 19.5781 7.73536ZM3.14178 14.7382C3.05837 14.736 2.97626 14.7171 2.90027 14.6826C2.82428 14.6482 2.75595 14.5989 2.69931 14.5376C2.58314 14.4195 2.51754 14.2608 2.51642 14.0951V4.03631C2.51754 3.87065 2.58314 3.71195 2.69931 3.59384C2.75743 3.53579 2.82643 3.48976 2.90235 3.45837C2.97827 3.42699 3.05963 3.41088 3.14178 3.41095H13.2124C13.3788 3.41094 13.5385 3.47664 13.6567 3.59375C13.7749 3.71086 13.8421 3.86991 13.8437 4.03631V7.1808H8.18004C7.67934 7.1808 7.19915 7.3797 6.84511 7.73374C6.49107 8.08779 6.29216 8.56797 6.29216 9.06867V14.7323L3.14178 14.7382ZM18.876 19.1393C18.8761 19.2214 18.86 19.3028 18.8286 19.3787C18.7972 19.4546 18.7512 19.5236 18.6931 19.5818C18.5754 19.6985 18.4164 19.7642 18.2507 19.7646H8.18004C8.09714 19.7646 8.01505 19.7483 7.93847 19.7166C7.86188 19.6849 7.79229 19.6384 7.73367 19.5798C7.67505 19.5211 7.62855 19.4515 7.59683 19.375C7.56511 19.2984 7.54878 19.2163 7.54878 19.1334V9.07457C7.55456 8.90929 7.62437 8.75274 7.74347 8.638C7.80159 8.57995 7.87059 8.53391 7.94651 8.50253C8.02243 8.47115 8.10379 8.45504 8.18594 8.45511H18.2448C18.4122 8.45511 18.5727 8.52162 18.6911 8.64C18.8095 8.75839 18.876 8.91895 18.876 9.08637V19.1393Z" fill="white" />
  <path d="M13.8378 11.5879H12.5811V13.4758H10.6933V14.7324H12.5811V16.6262H13.8378V14.7324H15.7315V13.4758H13.8378V11.5879Z" fill="white" />
</svg>
