<svg width="718" height="479" viewBox="0 0 718 479" fill="none" xmlns="http://www.w3.org/2000/svg">
  <g clip-path="url(#clip0_186_1303)">
    <path d="M21.58 104.375H439.429C451.028 104.375 460.43 113.772 460.43 125.365L495.118 424.164C495.118 435.757 485.716 445.153 474.114 445.153H35.264L0.576172 125.365C0.576172 113.772 9.97816 104.375 21.58 104.375Z" fill="white" />
    <path d="M474.114 445.732H35.264C34.9681 445.732 34.7219 445.509 34.6904 445.216L0.00261894 125.427C0.00261894 125.406 0 125.385 0 125.364C0 113.473 9.67959 103.796 21.58 103.796H439.429C451.316 103.796 460.991 113.452 461.009 125.33L495.692 424.098C495.694 424.119 495.697 424.143 495.697 424.164C495.697 436.055 486.017 445.732 474.117 445.732H474.114ZM35.7825 444.577H474.114C485.365 444.577 494.521 435.437 494.539 424.198L459.857 125.433C459.854 125.412 459.851 125.388 459.851 125.367C459.851 114.112 450.688 104.953 439.426 104.953H21.58C10.3291 104.953 1.17067 114.094 1.15495 125.336L35.7825 444.58V444.577Z" fill="black" />
    <path d="M474.115 436.636C481.005 436.636 486.594 431.053 486.594 424.164L451.906 125.364C451.906 118.478 446.32 112.895 439.43 112.895H21.5808C14.6904 112.895 9.10156 118.478 9.10156 125.364L43.7894 422.488C43.7894 430.302 50.1272 436.636 57.9447 436.636H82.5025L171.151 433.691L242.108 436.636H474.115Z" fill="#E2EAFF" />
    <path d="M672.024 478.421L65.921 478.421C49.0001 478.421 35.2637 464.693 35.2637 447.781V444.698L702.682 444.698V447.781C702.682 464.693 688.945 478.421 672.024 478.421Z" fill="white" />
    <path d="M672.024 479H65.9209C48.6988 479 34.6875 464.996 34.6875 447.784V444.7C34.6875 444.381 34.9468 444.125 35.2637 444.125H702.679C702.998 444.125 703.255 444.384 703.255 444.7V447.784C703.255 464.996 689.244 479 672.022 479H672.024ZM35.8425 445.276V447.784C35.8425 464.36 49.3352 477.846 65.9209 477.846H672.024C688.61 477.846 702.103 464.36 702.103 447.784V445.276H35.8425Z" fill="black" />
    <path d="M607.241 7.03058H311.831C301.778 7.03058 293.629 15.1752 293.629 25.2221V426.506C293.629 436.553 301.778 444.698 311.831 444.698H607.241C617.294 444.698 625.443 436.553 625.443 426.506V25.2221C625.443 15.1752 617.294 7.03058 607.241 7.03058Z" fill="white" />
    <path d="M607.239 445.276H311.831C301.476 445.276 293.051 436.856 293.051 426.506V25.2221C293.051 14.8725 301.476 6.45209 311.831 6.45209H607.239C617.595 6.45209 626.02 14.8725 626.02 25.2221V426.504C626.02 436.853 617.595 445.274 607.239 445.274V445.276ZM311.831 7.6064C302.112 7.6064 294.206 15.5086 294.206 25.2221V426.504C294.206 436.217 302.112 444.119 311.831 444.119H607.239C616.958 444.119 624.865 436.217 624.865 426.504V25.2221C624.865 15.5086 616.958 7.6064 607.239 7.6064H311.831Z" fill="black" />
    <path d="M611.863 426.506V25.222C611.863 22.6706 609.794 20.6022 607.241 20.6022L311.833 20.6022C309.28 20.6022 307.21 22.6706 307.21 25.222V426.506C307.21 429.058 309.28 431.126 311.833 431.126H607.241C609.794 431.126 611.863 429.058 611.863 426.506Z" fill="white" />
    <path d="M607.24 431.705H311.832C308.964 431.705 306.631 429.372 306.631 426.506V25.2221C306.631 22.3559 308.964 20.0237 311.832 20.0237H607.24C610.108 20.0237 612.442 22.3559 612.442 25.2221V426.504C612.442 429.37 610.108 431.702 607.24 431.702V431.705ZM311.832 21.1807C309.601 21.1807 307.786 22.9946 307.786 25.2247V426.506C307.786 428.736 309.601 430.55 311.832 430.55H607.24C609.472 430.55 611.287 428.736 611.287 426.506V25.2221C611.287 22.992 609.472 21.1781 607.24 21.1781H311.832V21.1807Z" fill="black" />
    <path d="M517.998 44.4475L401.149 44.7485C383.312 44.7956 368.837 29.7739 368.818 11.1976V8.09848C368.811 4.72715 371.539 0.879448 374.913 0.871596H544.127C547.506 0.863743 550.253 4.27171 550.256 7.65089V10.7317C550.279 29.308 535.836 44.403 517.998 44.4475Z" fill="white" />
    <path d="M401.069 45.3244C392.568 45.3244 384.512 41.9609 378.373 35.8491C371.849 29.3525 368.251 20.597 368.24 11.1976V8.0985C368.232 4.49683 371.147 0.303622 374.911 0.293152H544.141C545.723 0.293152 547.279 0.976316 548.525 2.21439C549.968 3.654 550.833 5.68256 550.835 7.64567V10.7265C550.859 29.5907 536.13 44.9736 518.004 45.0208L401.155 45.3218H401.071L401.069 45.3244ZM374.911 1.44746C371.849 1.45532 369.387 5.091 369.39 8.0985V11.1976C369.403 20.2881 372.881 28.7531 379.185 35.0324C385.104 40.927 392.871 44.1701 401.066 44.1701H401.147L517.996 43.8691C535.486 43.8246 549.699 28.9572 549.68 10.7291V7.64829C549.675 5.98357 548.939 4.25864 547.706 3.03104C546.679 2.00761 545.411 1.44485 544.136 1.44485H374.908L374.911 1.44746Z" fill="black" />
    <path d="M500.827 412.932C479.236 412.932 461.674 395.376 461.674 373.801C461.674 352.225 479.239 334.669 500.827 334.669C522.415 334.669 539.98 352.225 539.98 373.801C539.98 395.376 522.415 412.932 500.827 412.932ZM500.827 335.821C479.873 335.821 462.829 352.858 462.829 373.798C462.829 394.738 479.875 411.775 500.827 411.775C521.778 411.775 538.825 394.738 538.825 373.798C538.825 352.858 521.778 335.821 500.827 335.821Z" fill="#E2EAFF" />
    <path d="M500.828 403.004C484.716 403.004 471.605 389.903 471.605 373.798C471.605 357.693 484.713 344.592 500.828 344.592C516.942 344.592 530.05 357.693 530.05 373.798C530.05 389.903 516.942 403.004 500.828 403.004ZM500.828 345.749C485.352 345.749 472.76 358.331 472.76 373.801C472.76 389.27 485.35 401.852 500.828 401.852C516.305 401.852 528.895 389.27 528.895 373.801C528.895 358.331 516.305 345.749 500.828 345.749Z" fill="#E2EAFF" />
    <path d="M479.388 393.005C479.218 393.005 479.048 392.997 478.875 392.984C472.739 392.5 466.312 383.616 466.899 372.453C466.914 372.136 467.179 371.895 467.506 371.905C467.823 371.921 468.069 372.193 468.054 372.513C467.456 383.904 474.006 391.442 478.967 391.835C481.402 392.029 484.032 390.422 486.357 387.315C486.774 386.757 487.172 386.166 487.544 385.548C486.444 384.626 485.446 383.637 484.582 382.627C481.518 379.038 480.211 375.303 481.088 372.633C481.777 370.537 484.15 368.969 486.732 368.906C489.081 368.853 490.954 370.086 491.768 372.214C492.863 375.073 491.608 380.627 489.034 385.27C492.711 388.121 497.386 390.097 501.796 389.39C504.97 388.88 507.992 386.82 510.381 383.716C508.273 382.637 506.274 381.101 504.47 379.14C500.308 374.622 498.038 368.605 498.687 363.81C499.08 360.896 501.442 358.132 504.433 357.088C507.356 356.067 510.418 356.808 512.83 359.122C516.588 362.723 517.533 369.411 515.294 376.572C514.519 379.051 513.437 381.307 512.13 383.252C514.194 384.106 516.344 384.496 518.505 384.386C526.053 383.998 532.744 376.596 534.069 367.165C534.114 366.848 534.402 366.629 534.721 366.673C535.038 366.718 535.258 367.008 535.214 367.325C533.813 377.292 526.655 385.124 518.562 385.537C516.148 385.658 513.738 385.205 511.444 384.216C508.849 387.665 505.51 389.964 501.979 390.532C497.284 391.288 492.336 389.244 488.453 386.273C488.083 386.872 487.693 387.453 487.279 388.003C485.548 390.319 482.801 393.002 479.388 393.005ZM486.889 370.06C486.847 370.06 486.805 370.06 486.761 370.06C484.684 370.11 482.717 371.372 482.185 372.992C481.436 375.277 482.659 378.596 485.459 381.875C486.24 382.792 487.138 383.689 488.125 384.53C490.459 380.234 491.65 375.13 490.692 372.628C490.063 370.989 488.683 370.058 486.889 370.058V370.06ZM507.063 357.792C506.157 357.792 505.381 357.98 504.816 358.177C502.22 359.082 500.172 361.462 499.834 363.964C499.232 368.432 501.385 374.081 505.324 378.358C507.081 380.266 509.024 381.747 511.072 382.768C512.363 380.881 513.435 378.669 514.197 376.227C516.271 369.589 515.42 363.2 512.033 359.954C510.276 358.271 508.508 357.789 507.065 357.789L507.063 357.792Z" fill="#295860" />
    <path d="M510.163 74.1403L412.278 74.3916C406.904 74.4046 402.501 69.8371 402.496 64.2409V64.2148C402.491 58.6186 406.883 54.0275 412.257 54.0118L510.142 53.7605C515.516 53.7474 519.919 58.315 519.924 63.9111V63.9373C519.929 69.5335 515.537 74.1246 510.163 74.1403Z" fill="#E2EAFF" />
    <path d="M537.942 118.865L384.583 119.26C379.208 119.274 374.806 114.706 374.801 109.11V109.084C374.796 103.488 379.188 98.8964 384.562 98.8807L537.921 98.4855C543.295 98.4724 547.698 103.04 547.703 108.636V108.662C547.708 114.258 543.316 118.85 537.942 118.865Z" fill="#E2EAFF" />
    <path d="M535.992 248.303C535.673 248.303 535.416 248.046 535.416 247.727C535.416 247.407 535.673 247.148 535.992 247.148L577.806 247.059C578.126 247.059 578.382 247.316 578.382 247.635C578.382 247.954 578.126 248.214 577.806 248.214L535.992 248.303Z" fill="black" />
    <path d="M487.695 248.405C487.376 248.405 487.119 248.148 487.119 247.829C487.119 247.51 487.376 247.25 487.695 247.25L527.935 247.164C528.255 247.164 528.511 247.421 528.511 247.74C528.511 248.059 528.255 248.318 527.935 248.318L487.695 248.405Z" fill="black" />
    <path d="M443.527 248.483C443.208 248.483 442.951 248.227 442.951 247.907C442.951 247.588 443.208 247.329 443.527 247.329L479.64 247.269C479.959 247.269 480.216 247.525 480.216 247.845C480.216 248.164 479.959 248.423 479.64 248.423L443.527 248.483Z" fill="black" />
    <path d="M511.631 270.792C511.311 270.792 511.055 270.533 511.055 270.216C511.055 269.899 511.314 269.638 511.631 269.638L569.606 269.604C569.926 269.604 570.182 269.863 570.182 270.18C570.182 270.496 569.923 270.758 569.606 270.758L511.631 270.792Z" fill="black" />
    <path d="M476.701 270.954C476.384 270.954 476.125 270.698 476.125 270.381C476.125 270.062 476.382 269.803 476.699 269.8L503.569 269.653H503.571C503.888 269.653 504.148 269.91 504.148 270.227C504.148 270.546 503.891 270.805 503.574 270.808L476.704 270.954H476.701Z" fill="black" />
    <path d="M443.273 271.028C442.954 271.028 442.697 270.771 442.697 270.452C442.697 270.132 442.954 269.873 443.273 269.873L468.646 269.818C468.965 269.818 469.222 270.075 469.222 270.394C469.222 270.713 468.965 270.973 468.646 270.973L443.273 271.028Z" fill="black" />
    <path d="M510.504 293.41C510.184 293.41 509.928 293.153 509.928 292.834C509.928 292.515 510.184 292.255 510.504 292.255L577.517 292.111C577.837 292.111 578.093 292.368 578.093 292.687C578.093 293.007 577.837 293.266 577.517 293.266L510.504 293.41Z" fill="black" />
    <path d="M443.127 293.554C442.807 293.554 442.551 293.297 442.551 292.978C442.551 292.659 442.807 292.399 443.127 292.399L502.446 292.271C502.765 292.271 503.022 292.528 503.022 292.847C503.022 293.166 502.765 293.425 502.446 293.425L443.127 293.554Z" fill="black" />
    <path d="M496.666 315.842C496.349 315.842 496.09 315.585 496.09 315.268C496.09 314.949 496.347 314.69 496.663 314.687L530.17 314.522H530.173C530.49 314.522 530.749 314.779 530.749 315.096C530.749 315.415 530.492 315.674 530.175 315.677L496.669 315.842H496.666Z" fill="black" />
    <path d="M479.559 316.004C479.244 316.004 478.985 315.753 478.983 315.436C478.977 315.117 479.231 314.855 479.551 314.85L488.599 314.706C488.893 314.706 489.181 314.954 489.186 315.274C489.191 315.593 488.937 315.855 488.618 315.86L479.569 316.004H479.561H479.559Z" fill="black" />
    <path d="M442.98 316.082C442.661 316.082 442.404 315.826 442.404 315.507C442.404 315.187 442.661 314.928 442.98 314.928L471.503 314.868C471.823 314.868 472.079 315.124 472.079 315.444C472.079 315.763 471.823 316.022 471.503 316.022L442.98 316.082Z" fill="black" />
    <path d="M535.668 146.896C535.348 146.896 535.092 146.639 535.092 146.32C535.092 146.001 535.348 145.742 535.668 145.742L577.335 145.653C577.655 145.653 577.911 145.909 577.911 146.228C577.911 146.548 577.655 146.807 577.335 146.807L535.668 146.896Z" fill="black" />
    <path d="M487.539 146.998C487.22 146.998 486.963 146.742 486.963 146.422C486.963 146.103 487.22 145.844 487.539 145.844L527.638 145.757C527.957 145.757 528.214 146.014 528.214 146.333C528.214 146.653 527.957 146.912 527.638 146.912L487.539 146.998Z" fill="black" />
    <path d="M442.98 147.077C442.661 147.077 442.404 146.82 442.404 146.501C442.404 146.181 442.661 145.922 442.98 145.922L479.512 145.862C479.832 145.862 480.088 146.119 480.088 146.438C480.088 146.757 479.832 147.016 479.512 147.016L442.98 147.077Z" fill="black" />
    <path d="M553.307 169.304C552.987 169.304 552.73 169.048 552.73 168.728C552.73 168.409 552.987 168.15 553.307 168.15L577.189 168.098C577.508 168.098 577.765 168.354 577.765 168.673C577.765 168.993 577.508 169.252 577.189 169.252L553.307 169.304Z" fill="black" />
    <path d="M476.584 169.469C476.264 169.469 476.008 169.213 476.008 168.893C476.008 168.574 476.264 168.315 476.584 168.315L545.279 168.168C545.598 168.168 545.855 168.425 545.855 168.744C545.855 169.063 545.598 169.323 545.279 169.323L476.584 169.469Z" fill="black" />
    <path d="M442.98 169.54C442.661 169.54 442.404 169.283 442.404 168.964C442.404 168.645 442.661 168.385 442.98 168.385L468.554 168.331C468.874 168.331 469.131 168.587 469.131 168.906C469.131 169.226 468.874 169.485 468.554 169.485L442.98 169.54Z" fill="black" />
    <path d="M510.266 191.846C509.946 191.846 509.689 191.589 509.689 191.27C509.689 190.951 509.946 190.692 510.266 190.692L577.043 190.548C577.363 190.548 577.619 190.804 577.619 191.124C577.619 191.443 577.363 191.702 577.043 191.702L510.266 191.846Z" fill="black" />
    <path d="M442.98 191.99C442.661 191.99 442.404 191.733 442.404 191.414C442.404 191.095 442.661 190.836 442.98 190.836L502.237 190.71C502.556 190.71 502.813 190.967 502.813 191.286C502.813 191.605 502.556 191.864 502.237 191.864L442.98 191.99Z" fill="black" />
    <path d="M523.373 214.265C523.056 214.265 522.797 214.008 522.797 213.692C522.797 213.372 523.051 213.113 523.37 213.11L548.874 212.927C549.185 212.938 549.452 213.181 549.455 213.5C549.455 213.82 549.201 214.079 548.882 214.082L523.378 214.265H523.373Z" fill="black" />
    <path d="M479.434 214.359C479.114 214.359 478.857 214.103 478.857 213.783C478.857 213.464 479.114 213.205 479.434 213.205L515.347 213.126C515.667 213.126 515.923 213.383 515.923 213.702C515.923 214.021 515.667 214.281 515.347 214.281L479.434 214.356V214.359Z" fill="black" />
    <path d="M442.98 214.438C442.661 214.438 442.404 214.181 442.404 213.862C442.404 213.542 442.661 213.283 442.98 213.283L471.404 213.223C471.723 213.223 471.98 213.48 471.98 213.799C471.98 214.118 471.723 214.377 471.404 214.377L442.98 214.438Z" fill="black" />
    <path d="M412.931 214.474H345.32C345.001 214.474 344.744 214.215 344.744 213.898V146.325C344.744 146.006 345.003 145.75 345.32 145.75H412.931C413.25 145.75 413.507 146.009 413.507 146.325C413.507 146.642 413.248 146.901 412.931 146.901H345.896V213.32H412.352V179.67C412.352 179.35 412.611 179.094 412.928 179.094C413.245 179.094 413.504 179.353 413.504 179.67V213.896C413.504 214.215 413.245 214.472 412.928 214.472L412.931 214.474Z" fill="black" />
    <path d="M382.981 208.731C382.839 208.731 382.703 208.679 382.596 208.585L349.223 178.908C348.984 178.696 348.963 178.332 349.176 178.094C349.388 177.856 349.752 177.835 349.99 178.047L382.86 207.279L432.437 131.089C432.61 130.822 432.969 130.743 433.236 130.919C433.503 131.092 433.579 131.45 433.406 131.717L383.463 208.47C383.371 208.611 383.222 208.705 383.057 208.726C383.031 208.729 383.004 208.731 382.981 208.731Z" fill="#295860" />
    <path d="M412.931 316.095H345.32C345.001 316.095 344.744 315.836 344.744 315.52V247.947C344.744 247.627 345.003 247.371 345.32 247.371H412.931C413.25 247.371 413.507 247.63 413.507 247.947C413.507 248.263 413.248 248.522 412.931 248.522H345.896V314.941H412.352V281.291C412.352 280.971 412.611 280.715 412.928 280.715C413.245 280.715 413.504 280.974 413.504 281.291V315.517C413.504 315.836 413.245 316.093 412.928 316.093L412.931 316.095Z" fill="black" />
    <path d="M382.981 310.353C382.839 310.353 382.703 310.3 382.596 310.206L349.223 280.529C348.984 280.317 348.963 279.953 349.176 279.715C349.388 279.477 349.752 279.456 349.99 279.668L382.86 308.9L432.437 232.71C432.61 232.443 432.969 232.365 433.236 232.54C433.503 232.713 433.579 233.071 433.406 233.338L383.463 310.091C383.371 310.232 383.222 310.327 383.057 310.347C383.031 310.35 383.004 310.353 382.981 310.353Z" fill="#295860" />
    <path d="M607.175 241.154V232.15C607.175 229.721 609.103 227.745 611.473 227.745H645.88C648.251 227.745 650.178 229.721 650.178 232.15V241.154H655.484V232.15C655.484 226.724 651.176 222.311 645.88 222.311H611.473C606.177 222.311 601.869 226.727 601.869 232.15V241.154H607.175Z" fill="black" />
    <path d="M608.124 234.49H601.33C598.716 234.49 596.598 236.608 596.598 239.22V240.458C596.598 243.07 598.716 245.188 601.33 245.188H608.124C610.737 245.188 612.856 243.07 612.856 240.458V239.22C612.856 236.608 610.737 234.49 608.124 234.49Z" fill="white" />
    <path d="M608.124 245.764H601.33C598.402 245.764 596.021 243.384 596.021 240.458V239.22C596.021 236.294 598.402 233.914 601.33 233.914H608.124C611.052 233.914 613.435 236.294 613.435 239.22V240.458C613.435 243.384 611.052 245.764 608.124 245.764ZM601.33 235.069C599.039 235.069 597.174 236.932 597.174 239.223V240.461C597.174 242.751 599.039 244.615 601.33 244.615H608.124C610.415 244.615 612.28 242.751 612.28 240.461V239.223C612.28 236.932 610.415 235.069 608.124 235.069H601.33Z" fill="black" />
    <path d="M656.001 234.49H649.207C646.593 234.49 644.475 236.608 644.475 239.22V240.458C644.475 243.07 646.593 245.188 649.207 245.188H656.001C658.614 245.188 660.733 243.07 660.733 240.458V239.22C660.733 236.608 658.614 234.49 656.001 234.49Z" fill="white" />
    <path d="M656.001 245.764H649.208C646.28 245.764 643.896 243.384 643.896 240.458V239.22C643.896 236.294 646.28 233.914 649.208 233.914H656.001C658.929 233.914 661.31 236.294 661.31 239.22V240.458C661.31 243.384 658.929 245.764 656.001 245.764ZM649.208 235.069C646.916 235.069 645.051 236.932 645.051 239.223V240.461C645.051 242.751 646.916 244.615 649.208 244.615H656.001C658.293 244.615 660.157 242.751 660.157 240.461V239.223C660.157 236.932 658.293 235.069 656.001 235.069H649.208Z" fill="black" />
    <path d="M705.287 333.779H572.449L580.908 238.84H692.517L705.287 333.779Z" fill="white" />
    <path d="M705.288 334.358H572.447C572.285 334.358 572.13 334.29 572.02 334.169C571.91 334.049 571.858 333.889 571.871 333.729L580.33 238.791C580.356 238.492 580.605 238.265 580.906 238.265H692.515C692.803 238.265 693.049 238.479 693.089 238.764L705.859 333.703C705.879 333.868 705.83 334.036 705.72 334.159C705.61 334.284 705.453 334.355 705.285 334.355L705.288 334.358ZM573.078 333.203H704.628L692.012 239.419H581.435L573.078 333.203Z" fill="black" />
    <path d="M697.505 334.358C697.217 334.358 696.968 334.143 696.932 333.853L690.442 281.5C690.403 281.183 690.628 280.896 690.945 280.856C691.262 280.809 691.55 281.042 691.589 281.359L698.079 333.709C698.118 334.025 697.893 334.313 697.576 334.352C697.552 334.355 697.529 334.358 697.505 334.358Z" fill="black" />
    <path d="M688.967 333.779H556.127L566.684 238.84H680.506L688.967 333.779Z" fill="white" />
    <path d="M688.968 334.358H556.128C555.963 334.358 555.806 334.287 555.698 334.167C555.588 334.044 555.536 333.881 555.554 333.719L566.111 238.78C566.143 238.487 566.392 238.267 566.685 238.267H680.509C680.808 238.267 681.056 238.495 681.085 238.793L689.544 333.732C689.558 333.894 689.505 334.054 689.395 334.172C689.285 334.29 689.131 334.36 688.968 334.36V334.358ZM556.772 333.203H688.337L679.98 239.419H567.201L556.772 333.203Z" fill="black" />
    <path d="M678.056 283.924H562.721C562.401 283.924 562.145 283.665 562.145 283.348C562.145 283.031 562.404 282.772 562.721 282.772H677.438L676.019 262.531C675.998 262.212 676.236 261.937 676.555 261.914C676.885 261.893 677.15 262.131 677.171 262.45L678.632 283.309C678.643 283.469 678.588 283.626 678.478 283.743C678.368 283.861 678.216 283.927 678.056 283.927V283.924Z" fill="black" />
    <path d="M633.498 281.429H612.164V291.546H633.498V281.429Z" fill="white" />
    <path d="M633.5 292.122H612.166C611.846 292.122 611.59 291.863 611.59 291.546V281.429C611.59 281.11 611.849 280.854 612.166 280.854H633.5C633.819 280.854 634.076 281.113 634.076 281.429V291.546C634.076 291.865 633.817 292.122 633.5 292.122ZM612.742 290.968H632.921V282.005H612.742V290.968Z" fill="black" />
    <path d="M710.179 407.786H540.153C535.832 407.786 532.33 411.287 532.33 415.605V436.369C532.33 440.687 535.832 444.188 540.153 444.188H710.179C714.5 444.188 718.002 440.687 718.002 436.369V415.605C718.002 411.287 714.5 407.786 710.179 407.786Z" fill="#295860" />
    <path d="M698.18 438.696C697.86 438.696 697.604 438.437 697.604 438.12V415.065C697.604 414.746 697.863 414.49 698.18 414.49C698.497 414.49 698.756 414.749 698.756 415.065V438.12C698.756 438.439 698.497 438.696 698.18 438.696Z" fill="white" />
    <path d="M685.764 438.696C685.444 438.696 685.188 438.437 685.188 438.12V415.065C685.188 414.746 685.447 414.49 685.764 414.49C686.081 414.49 686.34 414.749 686.34 415.065V438.12C686.34 438.439 686.081 438.696 685.764 438.696Z" fill="white" />
    <path d="M660.93 438.696C660.61 438.696 660.354 438.437 660.354 438.12V415.065C660.354 414.746 660.613 414.49 660.93 414.49C661.247 414.49 661.506 414.749 661.506 415.065V438.12C661.506 438.439 661.247 438.696 660.93 438.696Z" fill="white" />
    <path d="M623.682 438.696C623.362 438.696 623.105 438.437 623.105 438.12V415.065C623.105 414.746 623.365 414.49 623.682 414.49C623.999 414.49 624.258 414.749 624.258 415.065V438.12C624.258 438.439 623.999 438.696 623.682 438.696Z" fill="white" />
    <path d="M611.266 438.696C610.946 438.696 610.689 438.437 610.689 438.12V415.065C610.689 414.746 610.949 414.49 611.266 414.49C611.582 414.49 611.842 414.749 611.842 415.065V438.12C611.842 438.439 611.582 438.696 611.266 438.696Z" fill="white" />
    <path d="M528.446 407.472H698.472C702.793 407.472 706.295 403.971 706.295 399.653V378.889C706.295 374.571 702.793 371.071 698.472 371.071H528.446C524.125 371.071 520.623 374.571 520.623 378.889V399.653C520.623 403.971 524.125 407.472 528.446 407.472Z" fill="#295860" />
    <path d="M540.445 400.769C540.126 400.769 539.869 400.509 539.869 400.193V377.138C539.869 376.819 540.128 376.562 540.445 376.562C540.762 376.562 541.022 376.821 541.022 377.138V400.193C541.022 400.512 540.762 400.769 540.445 400.769Z" fill="white" />
    <path d="M552.861 400.769C552.542 400.769 552.285 400.509 552.285 400.193V377.138C552.285 376.819 552.544 376.562 552.861 376.562C553.178 376.562 553.437 376.821 553.437 377.138V400.193C553.437 400.512 553.178 400.769 552.861 400.769Z" fill="white" />
    <path d="M577.695 400.769C577.376 400.769 577.119 400.509 577.119 400.193V377.138C577.119 376.819 577.378 376.562 577.695 376.562C578.012 376.562 578.272 376.821 578.272 377.138V400.193C578.272 400.512 578.012 400.769 577.695 400.769Z" fill="white" />
    <path d="M614.943 400.769C614.624 400.769 614.367 400.509 614.367 400.193V377.138C614.367 376.819 614.626 376.562 614.943 376.562C615.26 376.562 615.519 376.821 615.519 377.138V400.193C615.519 400.512 615.26 400.769 614.943 400.769Z" fill="white" />
    <path d="M627.361 400.769C627.042 400.769 626.785 400.509 626.785 400.193V377.138C626.785 376.819 627.044 376.562 627.361 376.562C627.678 376.562 627.937 376.821 627.937 377.138V400.193C627.937 400.512 627.678 400.769 627.361 400.769Z" fill="white" />
    <path d="M707.416 334.358H537.389C533.069 334.358 529.566 337.858 529.566 342.176V362.941C529.566 367.259 533.069 370.759 537.389 370.759H707.416C711.736 370.759 715.239 367.259 715.239 362.941V342.176C715.239 337.858 711.736 334.358 707.416 334.358Z" fill="#295860" />
    <path d="M695.932 365.27C695.612 365.27 695.355 365.011 695.355 364.694V341.64C695.355 341.32 695.615 341.064 695.932 341.064C696.249 341.064 696.508 341.323 696.508 341.64V364.694C696.508 365.014 696.249 365.27 695.932 365.27Z" fill="white" />
    <path d="M683.514 365.27C683.194 365.27 682.938 365.011 682.938 364.694V341.64C682.938 341.32 683.197 341.064 683.514 341.064C683.831 341.064 684.09 341.323 684.09 341.64V364.694C684.09 365.014 683.831 365.27 683.514 365.27Z" fill="white" />
    <path d="M658.682 365.27C658.362 365.27 658.105 365.011 658.105 364.694V341.64C658.105 341.32 658.365 341.064 658.682 341.064C658.999 341.064 659.258 341.323 659.258 341.64V364.694C659.258 365.014 658.999 365.27 658.682 365.27Z" fill="white" />
    <path d="M621.432 365.27C621.112 365.27 620.855 365.011 620.855 364.694V341.64C620.855 341.32 621.115 341.064 621.432 341.064C621.749 341.064 622.008 341.323 622.008 341.64V364.694C622.008 365.014 621.749 365.27 621.432 365.27Z" fill="white" />
    <path d="M609.018 365.27C608.698 365.27 608.441 365.011 608.441 364.694V341.64C608.441 341.32 608.701 341.064 609.018 341.064C609.334 341.064 609.594 341.323 609.594 341.64V364.694C609.594 365.014 609.334 365.27 609.018 365.27Z" fill="white" />
    <path d="M698.655 371.631L537.895 371.429C537.575 371.429 537.318 371.17 537.318 370.851C537.318 370.531 537.578 370.275 537.895 370.275L698.655 370.476C698.975 370.476 699.232 370.736 699.232 371.055C699.232 371.374 698.972 371.631 698.655 371.631Z" fill="white" />
    <path d="M698.671 408.247L540.275 408.189C539.956 408.189 539.699 407.93 539.699 407.613C539.699 407.297 539.958 407.037 540.275 407.037L698.671 407.095C698.991 407.095 699.247 407.354 699.247 407.671C699.247 407.988 698.988 408.247 698.671 408.247Z" fill="white" />
    <path d="M215.709 348.314L82.9397 417.824C82.9397 417.824 82.7485 424.664 82.4395 436.631H242.095C226.871 381.664 215.707 348.317 215.707 348.317L215.709 348.314Z" fill="white" />
    <path d="M242.097 437.204C241.846 437.204 241.613 437.036 241.542 436.78C227.635 386.571 216.997 354.041 215.376 349.139L83.5101 418.175C83.4682 419.688 83.2901 426.218 83.0204 436.641C83.0125 436.955 82.7559 437.204 82.4442 437.204H82.4285C82.109 437.196 81.8576 436.932 81.8654 436.612C82.1744 424.643 82.3656 417.806 82.3656 417.806C82.3709 417.596 82.4887 417.408 82.6747 417.311L215.444 347.801C215.594 347.723 215.772 347.715 215.929 347.778C216.086 347.84 216.206 347.969 216.261 348.131C216.374 348.463 227.604 382.122 242.658 436.474C242.744 436.78 242.563 437.099 242.254 437.183C242.202 437.196 242.152 437.204 242.1 437.204H242.097Z" fill="black" />
    <path d="M163.478 437.204C163.159 437.204 162.902 436.945 162.902 436.628V427.004C162.902 422.604 164.715 418.321 167.876 415.256L177.241 406.174C177.469 405.951 177.836 405.956 178.058 406.187C178.281 406.415 178.276 406.781 178.045 407.003L168.68 416.086C165.744 418.934 164.057 422.915 164.057 427.006V436.631C164.057 436.95 163.798 437.207 163.481 437.207L163.478 437.204Z" fill="black" />
    <path d="M209.931 297.825C209.931 297.825 223.977 334.53 250.501 328.296C264.502 325.005 302.393 281.589 302.393 281.589C302.393 281.589 301.419 251.017 300.772 228.253L250.059 267.298C250.059 267.298 227.798 231.938 210.395 226.957C195.509 222.696 179.009 218.843 162.288 217.723C161.478 220.309 160.321 222.808 158.605 224.921C155.292 228.993 149.999 231.237 144.921 232.043C140.045 232.818 134.914 232.553 130.153 231.229C125.871 230.035 121.699 227.871 118.533 224.716C117.077 223.266 115.89 221.615 114.992 219.824C85.4034 222.178 66.7723 225.761 51.1424 244.832C31.0002 269.41 14.2102 315.648 19.1024 344.841C23.9945 374.034 37.4192 383.067 54.5549 388.689L53.8059 404.475C52.2267 429.804 67.9874 435.1 82.4361 430.084L223.544 377.873C230.202 375.408 233.688 368.1 231.417 361.378L209.929 297.823L209.931 297.825Z" fill="#295860" />
    <path d="M235.004 279.482C234.829 279.482 234.659 279.404 234.546 279.254C234.352 279.001 234.402 278.639 234.656 278.446L248.447 267.934C248.701 267.74 249.063 267.79 249.257 268.044C249.45 268.298 249.401 268.659 249.147 268.853L235.355 279.364C235.25 279.446 235.127 279.482 235.007 279.482H235.004Z" fill="black" />
    <path d="M182.59 79.6946C200.265 79.6946 217.249 84.1548 230.464 92.2638C243.679 84.1574 260.663 79.6946 278.338 79.6946C296.014 79.6946 312.932 84.1365 326.137 92.2141C339.341 84.1365 356.291 79.6946 373.935 79.6946C391.579 79.6946 408.594 84.1548 421.809 92.2638C435.024 84.1574 452.008 79.6946 469.683 79.6946C487.358 79.6946 503.025 84.2045 516.004 91.7246C484.218 38.2755 410.019 3.46033 326.21 3.46033C242.401 3.46033 168.322 37.841 136.494 91.2063C149.437 83.7701 165.698 79.6946 182.59 79.6946Z" fill="#295860" />
    <path d="M421.422 93.1354C421.171 93.1354 420.94 92.9705 420.867 92.7192C405.36 39.0006 368.177 4.29269 326.138 4.29269C284.098 4.29269 247.027 38.9063 231.479 92.4732C231.39 92.7794 231.067 92.9574 230.764 92.8658C230.457 92.7768 230.282 92.4575 230.371 92.1512C237.9 66.2093 250.77 44.0706 267.589 28.1301C284.837 11.7813 305.081 3.14099 326.14 3.14099C347.199 3.14099 367.506 11.8101 384.77 28.206C401.605 44.1963 414.472 66.3952 421.98 92.4025C422.069 92.7088 421.891 93.0281 421.585 93.1171C421.532 93.1328 421.477 93.1406 421.425 93.1406L421.422 93.1354Z" fill="black" />
    <path d="M326.068 202.999C325.749 202.999 325.492 202.74 325.492 202.423L325.529 0.578471C325.529 0.259138 325.788 0.00262451 326.105 0.00262451C326.422 0.00262451 326.681 0.261756 326.681 0.578471L326.645 202.423C326.645 202.743 326.385 202.999 326.068 202.999Z" fill="black" />
    <path d="M327.748 202.766H323.958C322.929 202.766 322.094 203.601 322.094 204.63V265.534C322.094 266.563 322.929 267.397 323.958 267.397H327.748C328.778 267.397 329.613 266.563 329.613 265.534V204.63C329.613 203.601 328.778 202.766 327.748 202.766Z" fill="#295860" />
    <path d="M317.763 213.503C323.113 210.113 323.567 212.071 330.955 211.922C332.764 211.886 333.862 216.539 331.633 218.628C329.407 220.714 322.097 222.513 322.097 222.513L322.04 263.636L302.366 281.416L300.68 228.378C300.68 228.378 315.668 214.83 317.763 213.506V213.503Z" fill="white" />
    <path d="M303.141 281.21C302.984 281.21 302.825 281.144 302.712 281.019C302.5 280.783 302.518 280.417 302.756 280.205L321.626 263.264C321.862 263.052 322.228 263.07 322.44 263.309C322.653 263.544 322.634 263.911 322.396 264.123L303.526 281.063C303.416 281.163 303.278 281.21 303.141 281.21Z" fill="black" />
    <path d="M301.735 228.378C301.58 228.378 301.426 228.315 301.313 228.195C301.096 227.962 301.109 227.596 301.342 227.378C301.913 226.847 315.34 214.356 317.454 213.016C321.23 210.624 322.778 210.786 325.591 211.079C326.918 211.218 328.571 211.393 330.944 211.344C331.805 211.352 332.567 211.975 333.034 213.118C333.746 214.867 333.636 217.539 332.028 219.047C329.721 221.209 322.199 223.211 321.88 223.298C321.571 223.379 321.254 223.196 321.172 222.887C321.091 222.578 321.275 222.264 321.584 222.18C321.66 222.159 329.142 220.167 331.237 218.204C332.423 217.092 332.536 214.966 331.963 213.555C331.695 212.901 331.318 212.498 330.975 212.498H330.967C328.524 212.548 326.832 212.37 325.47 212.228C322.752 211.943 321.51 211.815 318.072 213.99C316.451 215.016 306.933 223.748 302.128 228.221C302.018 228.326 301.876 228.376 301.735 228.376V228.378Z" fill="black" />
    <path d="M334.735 228.125C339.944 226.772 343.649 223.685 343.011 221.231C342.373 218.777 337.633 217.885 332.424 219.238C327.215 220.591 323.51 223.678 324.148 226.132C324.786 228.586 329.526 229.478 334.735 228.125Z" fill="white" />
    <path d="M330.043 229.368C326.644 229.368 324.083 228.263 323.577 226.308C322.849 223.502 326.665 220.165 332.267 218.712C334.867 218.037 337.447 217.882 339.527 218.272C341.758 218.694 343.19 219.704 343.557 221.12C343.926 222.536 343.167 224.114 341.423 225.567C339.796 226.923 337.468 228.041 334.867 228.716C333.168 229.158 331.526 229.368 330.043 229.368ZM337.094 219.214C335.677 219.214 334.124 219.421 332.555 219.83C327.249 221.206 324.206 224.143 324.693 226.02C325.18 227.897 329.268 228.978 334.577 227.601C337.015 226.967 339.183 225.931 340.682 224.682C342.043 223.549 342.682 222.355 342.436 221.411C342.19 220.466 341.051 219.735 339.309 219.408C338.626 219.28 337.879 219.214 337.091 219.214H337.094Z" fill="black" />
    <path d="M330.28 237.307C335.489 235.954 339.194 232.868 338.556 230.414C337.918 227.96 333.178 227.067 327.969 228.42C322.76 229.774 319.054 232.86 319.693 235.314C320.331 237.768 325.071 238.66 330.28 237.307Z" fill="white" />
    <path d="M325.579 238.55C324.72 238.55 323.903 238.479 323.151 238.338C320.92 237.916 319.487 236.906 319.121 235.49C318.751 234.074 319.511 232.496 321.255 231.043C322.881 229.687 325.21 228.569 327.81 227.894C330.411 227.219 332.988 227.062 335.07 227.454C337.301 227.876 338.734 228.886 339.1 230.302C339.47 231.718 338.71 233.297 336.966 234.749C335.34 236.105 333.011 237.223 330.411 237.898C328.75 238.33 327.098 238.55 325.579 238.55ZM332.639 228.397C331.223 228.397 329.67 228.603 328.101 229.012C325.663 229.645 323.494 230.682 321.994 231.93C320.632 233.064 319.99 234.257 320.236 235.202C320.482 236.147 321.622 236.877 323.363 237.204C325.28 237.563 327.679 237.416 330.117 236.783C332.556 236.15 334.724 235.113 336.225 233.865C337.587 232.731 338.228 231.538 337.982 230.593C337.736 229.648 336.597 228.917 334.855 228.59C334.172 228.462 333.425 228.397 332.637 228.397H332.639Z" fill="black" />
    <path d="M332.151 245.363C337.34 243.934 341 240.794 340.327 238.35C339.653 235.905 334.9 235.082 329.712 236.51C324.523 237.939 320.863 241.078 321.536 243.523C322.21 245.967 326.962 246.791 332.151 245.363Z" fill="white" />
    <path d="M327.256 246.672C323.967 246.672 321.495 245.609 320.968 243.704C320.581 242.293 321.314 240.704 323.037 239.225C324.645 237.846 326.955 236.694 329.545 235.982C335.126 234.448 340.1 235.432 340.87 238.225C341.64 241.021 337.871 244.41 332.29 245.947C330.512 246.436 328.791 246.669 327.254 246.669L327.256 246.672ZM334.605 236.406C333.207 236.406 331.596 236.616 329.854 237.095C327.424 237.762 325.271 238.83 323.792 240.099C322.448 241.254 321.825 242.455 322.084 243.397C322.6 245.266 326.701 246.29 331.989 244.834C337.277 243.379 340.275 240.4 339.762 238.532C339.416 237.278 337.457 236.404 334.608 236.404L334.605 236.406Z" fill="black" />
    <path d="M334.127 253.481C338.098 252.388 340.772 249.52 340.098 247.075C339.424 244.631 335.658 243.535 331.687 244.629C327.716 245.722 325.042 248.59 325.716 251.035C326.39 253.479 330.155 254.574 334.127 253.481Z" fill="white" />
    <path d="M331.073 254.514C330.167 254.514 329.3 254.399 328.509 254.168C326.72 253.647 325.526 252.6 325.146 251.216C324.764 249.834 325.254 248.321 326.524 246.96C327.723 245.672 329.499 244.656 331.521 244.102C333.543 243.547 335.588 243.51 337.277 243.999C339.066 244.52 340.26 245.567 340.64 246.952C341.022 248.334 340.533 249.847 339.262 251.208C338.063 252.496 336.287 253.511 334.265 254.066C333.189 254.362 332.105 254.511 331.073 254.511V254.514ZM334.713 244.811C333.786 244.811 332.807 244.947 331.827 245.217C330.007 245.717 328.425 246.617 327.367 247.75C326.38 248.808 325.987 249.931 326.257 250.912C326.526 251.894 327.44 252.658 328.831 253.061C330.319 253.493 332.139 253.456 333.959 252.956C335.779 252.457 337.361 251.556 338.419 250.423C339.406 249.365 339.799 248.242 339.529 247.261C339.26 246.279 338.346 245.515 336.955 245.112C336.269 244.913 335.509 244.811 334.713 244.811Z" fill="black" />
    <path d="M170.057 134.102C169.542 131.291 168.58 128.456 166.889 126.126C165.425 124.108 163.458 122.577 161.158 121.622C156.494 119.679 151.039 120.143 146.581 122.417C143.475 124.003 140.864 126.333 138.701 129.042C135.825 126.88 132.015 126.134 128.419 126.762C123.372 127.644 119.475 131.429 117.522 136.041C116.45 138.567 115.945 141.305 115.984 144.046C111.983 144.072 109.06 147.516 107.91 151.113C106.729 154.803 106.663 158.926 107.182 162.737C108.182 170.1 111.736 177.081 117.016 182.3C119.886 185.137 123.262 187.407 126.979 188.972C128.587 191.663 131.559 193.314 134.636 193.752C138.505 194.301 142.344 192.914 145.578 190.872C152.236 186.669 157.518 179.884 159.613 172.27C160.637 168.553 160.894 164.645 160.341 160.839C168.002 154.447 171.867 143.946 170.06 134.102H170.057Z" fill="black" />
    <path d="M126.792 176.845L122.062 213.812C121.787 215.793 120.658 217.395 118.681 217.715L107.152 220.51C109.816 223.031 145.088 300.59 145.088 300.59C145.088 300.59 167.639 221.125 169.31 218.267C165.332 217.812 161.296 217.442 157.321 216.99C154.888 216.712 154.22 214.634 154.262 212.189L156.163 180.648C156.163 180.648 150.09 161.423 126.792 176.845Z" fill="white" />
    <path d="M145.085 300.59C145.085 300.59 149.163 286.222 153.979 269.489L144.263 241.222C144.263 241.222 150.897 232.307 150.897 231.203C150.698 230.928 140.382 220.005 140.382 220.005C140.382 220.005 130.736 232.009 130.652 232.53C130.652 233.922 139.371 241.476 139.371 241.476C139.371 241.476 136.288 256.935 132.939 274.072C139.68 288.696 145.091 300.59 145.091 300.59H145.085Z" fill="#E2EAFF" />
    <path d="M128.411 235.631C127.866 235.631 125.566 234.812 110.982 226.763C110.701 226.609 110.602 226.258 110.756 225.981C110.911 225.701 111.262 225.599 111.539 225.756C117.259 228.912 126.546 233.901 128.188 234.451C129.398 233.223 135.909 224.881 139.923 219.654C140.028 219.521 140.185 219.437 140.356 219.429C140.526 219.419 140.691 219.489 140.806 219.615C145.816 225.036 153.529 233.26 154.768 234.268C156.017 234.009 161.566 228.585 166.32 223.376C166.534 223.141 166.901 223.125 167.137 223.34C167.372 223.554 167.388 223.921 167.173 224.156C155.915 236.493 154.616 235.576 154.186 235.278C152.958 234.419 142.964 223.649 140.421 220.9C133.077 230.446 129.091 235.393 128.568 235.603C128.531 235.618 128.489 235.634 128.411 235.634V235.631Z" fill="#E2EAFF" />
    <path d="M108.258 220.819C107.996 220.819 107.757 220.641 107.697 220.374C107.624 220.065 107.818 219.754 108.127 219.68L117.694 217.435C120.517 216.893 121.109 215.275 121.318 213.765L126.279 176.319C126.299 176.154 126.394 176.005 126.533 175.913C134.586 170.582 141.495 168.935 147.062 171.019C154.191 173.683 156.407 181.426 156.498 181.753C156.514 181.813 156.522 181.876 156.519 181.939L154.838 212.223C154.801 214.362 156.394 216.173 158.541 216.419C160.537 216.647 162.035 216.851 163.483 217.05C164.926 217.246 166.416 217.45 168.399 217.678C168.716 217.715 168.944 218 168.907 218.317C168.87 218.633 168.58 218.861 168.268 218.824C166.272 218.597 164.774 218.393 163.326 218.194C161.883 217.997 160.393 217.793 158.41 217.565C155.668 217.254 153.636 214.938 153.683 212.181L155.362 181.975C155.103 181.135 152.842 174.403 146.651 172.094C141.5 170.173 135.018 171.733 127.392 176.73L122.465 213.919C122.235 215.587 121.515 217.877 117.937 218.565L108.391 220.806C108.347 220.816 108.302 220.822 108.258 220.822V220.819Z" fill="black" />
    <path d="M160.379 147.137C160.379 147.137 144.44 157.583 130.444 158.426C128.349 162.789 127.82 167.161 128.524 171.534C128.524 171.534 125.654 168.514 122.692 170.15C119.492 171.917 117.941 176.125 119.167 179.567C120.393 183.012 124.059 185.342 127.718 185.25C129.784 185.198 131.693 184.941 133.474 183.318C136.761 186.582 141.216 200.196 158.784 194.354C169.563 190.77 169.034 184.431 168.461 176.704C167.887 168.974 166.735 157.068 160.381 147.134L160.379 147.137Z" fill="white" />
    <path d="M150.725 196.385C141.844 196.385 137.688 190.27 134.975 186.279C134.398 185.431 133.885 184.674 133.419 184.122C131.531 185.609 129.504 185.787 127.728 185.831C127.655 185.831 127.579 185.834 127.505 185.834C123.595 185.834 119.884 183.31 118.622 179.764C117.305 176.065 119.004 171.527 122.411 169.647C124.525 168.48 126.544 169.351 127.765 170.173C127.359 166.038 128.084 162.009 129.923 158.18C130.014 157.992 130.198 157.866 130.407 157.853C144.083 157.028 159.902 146.76 160.059 146.658C160.187 146.571 160.347 146.545 160.496 146.577C160.648 146.608 160.779 146.7 160.863 146.831C167.599 157.361 168.568 170.401 169.031 176.667L169.039 176.785C169.615 184.52 170.11 191.2 158.961 194.909C155.834 195.948 153.108 196.39 150.725 196.39V196.385ZM133.471 182.742C133.618 182.742 133.767 182.8 133.877 182.91C134.514 183.543 135.171 184.509 135.933 185.627C139.191 190.422 144.646 198.447 158.6 193.807C168.898 190.383 168.452 184.415 167.892 176.864L167.884 176.748C167.434 170.673 166.504 158.133 160.2 147.932C157.406 149.676 143.342 158.086 130.823 158.978C128.959 163.001 128.393 167.082 129.098 171.443C129.137 171.691 129.011 171.937 128.783 172.05C128.561 172.163 128.283 172.115 128.108 171.932C128.003 171.822 125.502 169.257 122.972 170.652C120.039 172.272 118.577 176.183 119.714 179.374C120.817 182.473 124.074 184.677 127.508 184.677C127.573 184.677 127.639 184.677 127.704 184.674C129.878 184.619 131.538 184.302 133.084 182.894C133.194 182.795 133.332 182.745 133.474 182.745L133.471 182.742Z" fill="black" />
    <path d="M130.866 179.609C130.808 179.609 130.753 179.601 130.695 179.583C128.912 179.031 127.236 178.201 125.714 177.117C125.455 176.932 125.395 176.573 125.581 176.311C125.767 176.052 126.125 175.992 126.387 176.178C127.807 177.191 129.373 177.966 131.039 178.481C131.342 178.575 131.513 178.9 131.418 179.204C131.342 179.452 131.114 179.609 130.866 179.609Z" fill="black" />
    <path d="M156.534 181.353C152.647 182.588 148.308 182.667 144.563 181.057C139.495 178.879 136.08 173.88 134.485 168.603C133.629 165.768 133.228 162.823 133.029 159.873C132.903 158.02 133.241 154.746 131.256 153.605C127.694 151.558 121.246 162.669 119.848 165.195C125.148 169.548 130.054 174.241 131.45 180.955C132.709 187.017 132.322 193.937 136.446 198.557C138.767 201.156 142.226 202.549 145.694 202.881C149.161 203.214 152.658 202.567 156.007 201.612C160.148 200.429 164.372 198.591 166.844 195.068C168.83 192.239 169.83 189.409 169.589 185.962C169.351 182.515 169.16 176.322 168.151 173.016C165.69 177.199 160.423 180.12 156.536 181.353H156.534Z" fill="black" />
    <path d="M184.287 343.037H119.604C116.744 343.037 114.691 340.286 115.503 337.546L140.485 253.42C141.025 251.606 142.693 250.363 144.586 250.363H209.269C212.129 250.363 214.182 253.114 213.37 255.854L188.388 339.98C187.849 341.794 186.18 343.037 184.287 343.037Z" fill="black" />
    <path d="M176.605 319.074C179.567 316.221 181.376 313.119 179.486 310.081C177.595 307.042 172.836 306.332 170.139 308.688C172.137 307.115 174.19 305.482 175.403 303.249C176.618 301.016 176.783 298.009 175.107 296.095C173.635 294.415 171.11 293.996 168.929 294.48C167.852 294.719 166.839 295.143 165.859 295.656C166.807 294.234 167.067 292.227 166.265 290.672C164.895 288.02 161.551 286.887 158.584 287.219C155.617 287.554 152.924 289.052 150.324 290.52C132.923 300.312 98.5394 320.197 98.5394 320.197C97.6359 325.144 114.211 360.831 121.065 367.485C125.501 366.152 160.283 343.684 172.881 332.884C174.994 331.073 177.165 329.157 178.239 326.589C179.313 324.021 178.915 320.616 176.602 319.069L176.605 319.074Z" fill="white" />
    <path d="M145.449 309.444C145.255 309.444 145.067 309.348 144.957 309.17C144.789 308.897 144.876 308.541 145.145 308.377C151.491 304.474 157.858 300.385 164.07 296.221C164.334 296.043 164.693 296.114 164.871 296.378C165.049 296.642 164.979 297.001 164.714 297.179C158.491 301.349 152.109 305.448 145.753 309.358C145.659 309.416 145.554 309.444 145.452 309.444H145.449Z" fill="black" />
    <path d="M153.509 321.37C153.328 321.37 153.153 321.286 153.038 321.129C152.852 320.87 152.912 320.509 153.171 320.323L169.595 308.586C169.854 308.4 170.215 308.46 170.401 308.719C170.587 308.979 170.527 309.34 170.268 309.526L153.844 321.262C153.742 321.336 153.624 321.37 153.509 321.37Z" fill="black" />
    <path d="M161.211 331.157C161.025 331.157 160.845 331.068 160.732 330.903C160.554 330.638 160.622 330.28 160.886 330.102C165.868 326.733 170.752 323.087 175.401 319.271C175.647 319.066 176.011 319.106 176.212 319.349C176.414 319.595 176.38 319.959 176.134 320.16C171.459 324 166.546 327.667 161.533 331.057C161.434 331.125 161.321 331.157 161.211 331.157Z" fill="black" />
    <path d="M65.3687 390.969C62.2051 390.969 59.0833 390.717 55.9982 390.215C55.6839 390.163 55.4692 389.867 55.5215 389.553C55.5739 389.239 55.8699 389.024 56.1841 389.076C75.4647 392.212 96.1884 385.383 119.552 368.202C119.809 368.013 120.17 368.068 120.359 368.325C120.547 368.581 120.492 368.943 120.235 369.131C100.332 383.768 82.2818 390.966 65.3714 390.966L65.3687 390.969Z" fill="black" />
    <path d="M59.7244 343.304C59.5254 343.304 59.3316 343.202 59.2242 343.016C59.0644 342.741 59.1587 342.388 59.4363 342.228L96.3372 320.917C96.6121 320.757 96.9657 320.851 97.1254 321.129C97.2852 321.404 97.1909 321.757 96.9133 321.917L60.0125 343.228C59.9208 343.281 59.8213 343.304 59.7244 343.304Z" fill="black" />
    <path d="M73.0105 335.358C72.9791 335.358 72.945 335.355 72.9136 335.35C72.5993 335.297 72.3872 334.999 72.4396 334.685L80.9066 284.748C80.959 284.434 81.2575 284.228 81.5718 284.275C81.8861 284.327 82.0982 284.625 82.0458 284.94L73.5788 334.876C73.5317 335.159 73.2855 335.358 73.0105 335.358Z" fill="black" />
  </g>
  <defs>
    <clipPath id="clip0_186_1303">
      <rect width="718" height="479" fill="white" />
    </clipPath>
  </defs>
</svg>

