<svg width="21" height="21" viewBox="0 0 21 21" fill="none" xmlns="http://www.w3.org/2000/svg">
  <g clip-path="url(#clip0_32_986)">
    <path d="M10.5 19.9499C10.0586 19.9506 9.62272 19.8525 9.22416 19.6629C8.82561 19.4732 8.47451 19.1969 8.19657 18.854L1.65376 10.8281C1.09887 10.2584 0.668351 9.57971 0.389489 8.83496C0.110626 8.09021 -0.0105011 7.29565 0.0337817 6.50164C0.0780644 5.70763 0.286792 4.93147 0.646738 4.22235C1.00668 3.51323 1.51 2.8866 2.1248 2.38218C2.73959 1.87775 3.45246 1.50653 4.21823 1.29203C4.984 1.07753 5.78598 1.02443 6.57335 1.13609C7.36071 1.24776 8.1163 1.52175 8.79224 1.94071C9.46817 2.35968 10.0497 2.91447 10.5 3.56995C10.7051 3.26877 10.938 2.98753 11.1956 2.72995C12.2695 1.64911 13.7288 1.03913 15.2524 1.03421C16.0068 1.03177 16.7543 1.17795 17.4522 1.4644C18.1502 1.75085 18.7848 2.17197 19.32 2.7037C19.8552 3.23543 20.2804 3.86736 20.5714 4.56342C20.8623 5.25948 21.0133 6.00603 21.0157 6.76045C21.0182 7.51487 20.872 8.26238 20.5856 8.9603C20.2991 9.65823 19.878 10.2929 19.3463 10.8281L12.7838 18.854C12.5082 19.1947 12.1604 19.4697 11.7654 19.6593C11.3704 19.8488 10.9381 19.9481 10.5 19.9499ZM5.7422 2.44776C4.88719 2.45187 4.0524 2.70818 3.34241 3.1846C2.63242 3.66101 2.07879 4.33633 1.75089 5.12598C1.42298 5.91562 1.33537 6.78446 1.49903 7.62367C1.6627 8.46288 2.07036 9.23513 2.67095 9.8437L2.71689 9.8962L9.27939 17.9484C9.43151 18.1214 9.61877 18.26 9.82868 18.355C10.0386 18.4499 10.2663 18.499 10.4967 18.499C10.7271 18.499 10.9549 18.4499 11.1648 18.355C11.3747 18.26 11.5619 18.1214 11.7141 17.9484L18.2766 9.8962L18.3225 9.8437C18.7869 9.38298 19.1412 8.82335 19.3591 8.20655C19.577 7.58975 19.6528 6.93171 19.5808 6.28154C19.5088 5.63136 19.2909 5.00584 18.9434 4.45163C18.5959 3.89743 18.1277 3.42886 17.5738 3.08089C17.0198 2.73292 16.3945 2.51452 15.7444 2.44201C15.0943 2.36949 14.4362 2.44472 13.8192 2.66209C13.2022 2.87945 12.6423 3.23334 12.1812 3.69734C11.7201 4.16135 11.3697 4.72349 11.1563 5.34182C11.1056 5.47486 11.0157 5.58936 10.8985 5.67015C10.7813 5.75094 10.6424 5.7942 10.5 5.7942C10.3577 5.7942 10.2187 5.75094 10.1015 5.67015C9.98428 5.58936 9.8944 5.47486 9.84376 5.34182C9.54361 4.49431 8.9879 3.7608 8.25328 3.24244C7.51865 2.72409 6.64129 2.44643 5.7422 2.44776Z" fill="white" />
  </g>
  <defs>
    <clipPath id="clip0_32_986">
      <rect width="21" height="21" fill="white" />
    </clipPath>
  </defs>
</svg>
