<svg viewBox="0 0 63 62" fill="none" xmlns="http://www.w3.org/2000/svg">
  <g clip-path="url(#clip0_32_537)">
    <path d="M35.5643 16.514V19.6742C35.5643 20.372 36.6893 21.5989 37.3111 21.897C38.4428 22.438 41.3432 22.3587 42.4055 21.6006C43.1272 21.0871 42.9358 20.472 44.0065 20.6357C44.4283 20.6994 45.1822 21.5523 45.7244 21.8522C47.7896 22.9963 49.8091 22.6189 52.0589 22.7619L54.4613 32.506C52.2809 32.9454 50.1072 33.4209 47.9082 33.7742C34.8257 35.8763 21.4653 35.4197 8.55225 32.506L10.9631 22.5758C12.4489 23.7234 13.9804 24.8848 15.7864 25.4724C17.218 25.9376 17.7076 25.8773 19.1121 25.3828C22.8766 24.0594 26.2904 20.2428 27.7016 16.514H35.5643Z" fill="#295860" />
    <path d="M40.6367 55.7245V48.9528C40.6367 47.1108 38.4529 45.5359 36.774 45.4015C33.9312 45.1741 29.2247 45.1999 26.3649 45.4015C24.6114 45.5256 22.3768 47.004 22.3768 48.9545V55.7262H6.58699C5.23334 55.7262 3.61708 54.0738 3.263 52.7867C2.85809 51.3117 2.98176 45.6927 3.09358 43.9197C3.29519 40.7096 4.6624 37.2358 6.90211 34.9614C7.88135 37.72 10.138 40.0565 12.8301 41.1214C14.5649 41.8072 16.6555 41.9847 18.5073 42.1828C27.4916 43.1408 38.087 43.2029 47.0238 41.9088C51.4202 41.273 54.4088 39.2294 56.2978 35.0923C58.4375 37.5443 59.7302 40.7595 59.9183 44.0472C60.0165 45.7634 60.1487 51.5133 59.7217 52.8883C59.3372 54.1255 57.7395 55.7262 56.4249 55.7262H40.6367V55.7245ZM7.88135 46.4647C7.41714 46.606 7.20876 46.9247 7.15454 47.402C7.05797 48.2498 7.03934 50.9723 7.16471 51.7821C7.25958 52.399 7.66958 52.5816 8.22866 52.635C10.8072 52.8745 13.7365 52.4421 16.354 52.6316C16.93 52.5885 17.24 52.2336 17.3044 51.6649C17.4094 50.7517 17.4094 48.317 17.3044 47.4038C17.2248 46.7093 16.8792 46.494 16.2303 46.4337C13.5908 46.189 10.5616 46.606 7.88135 46.4681V46.4647ZM46.4342 46.4647C45.97 46.606 45.7617 46.9247 45.7074 47.402C45.6109 48.2498 45.5922 50.9723 45.7176 51.7821C45.8125 52.399 46.2225 52.5816 46.7816 52.635C49.3601 52.8745 52.2893 52.4421 54.9069 52.6316C55.4829 52.5885 55.7929 52.2336 55.8573 51.6649C55.9623 50.7517 55.9623 48.317 55.8573 47.4038C55.7777 46.7093 55.4321 46.494 54.7832 46.4337C52.1436 46.189 49.1144 46.606 46.4342 46.4681V46.4647Z" fill="#295860" />
    <path d="M13.0893 7.26452C14.6124 7.09394 16.0575 7.55917 17.2621 8.49825C20.4675 5.9791 25.2451 7.4196 26.2447 11.4844C27.168 15.2372 24.1456 19.5415 21.3485 21.7264C20.3337 22.519 18.2024 23.913 16.9182 23.6821C13.152 23.0049 8.46927 17.3222 8.17617 13.4831C7.94237 10.4264 10.0618 7.60225 13.091 7.26452H13.0893Z" fill="#295860" />
    <path d="M51.0357 6.1962H57.5668C57.6447 6.1962 58.5511 6.64076 58.6867 6.7338C59.4931 7.28347 60.042 8.47756 59.8946 9.46834C59.8523 9.63548 59.7404 9.65271 59.5964 9.68028C58.6189 9.86292 56.0708 9.41664 55.3491 9.74575C54.4156 10.1731 54.9561 11.7428 55.7913 11.7428H59.5321L59.0967 14.9753C58.7477 15.5026 54.6393 14.2637 54.8409 16.309C54.8697 16.595 55.2898 17.1602 55.5372 17.1602H58.7714C58.6934 18.9126 57.7379 20.4547 55.9167 20.6408C54.1666 20.82 50.1869 20.8252 48.4487 20.6287C47.1137 20.4788 45.9074 19.6707 45.1179 18.599L43.6796 18.5783V6.1962H45.5178C45.6685 6.1962 46.0904 5.76371 46.1853 5.58623C47.1679 3.74253 47.095 -0.818472 50.3428 0.129224C53.0281 0.913227 51.4762 4.34561 51.034 6.19792L51.0357 6.1962Z" fill="#295860" />
    <path d="M54.0784 34.7012C53.0619 37.3892 50.5054 39.1898 47.7845 39.7119C41.5499 40.9094 33.4856 40.856 27.1375 40.6269C23.3357 40.4907 18.8563 40.4097 15.141 39.6705C12.5489 39.1553 10.0787 37.2582 9.05884 34.7632C11.036 35.0544 12.9978 35.5265 14.9783 35.8367C27.9897 37.8751 41.2196 37.5046 54.0801 34.6977L54.0784 34.7012Z" fill="#295860" />
    <path d="M38.6071 55.7245H24.4031V49.082C24.4031 49.0286 24.6606 48.479 24.725 48.379C25.1451 47.7208 25.7567 47.5209 26.4903 47.4658C29.838 47.2125 33.5026 47.6571 36.8841 47.483C37.5245 47.4658 38.6071 48.4979 38.6071 49.0838V55.7263V55.7245ZM27.1578 50.5932C26.1278 50.8999 26.1955 52.4524 27.2646 52.6213C29.8465 52.349 33.2671 53.0141 35.7457 52.6213C36.8655 52.4438 36.8689 50.7517 35.7457 50.5725L27.1561 50.5932H27.1578Z" fill="#295860" />
    <path d="M38.3174 4.67645C39.0357 4.51276 41.6075 4.37146 41.6431 5.49491L41.6532 19.1624C41.6312 19.6587 41.3025 20.0429 40.818 20.1187C40.0217 20.2445 37.6837 20.4065 37.599 19.2796L37.5889 5.61208C37.5973 5.18476 37.8972 4.7695 38.3157 4.67473L38.3174 4.67645Z" fill="#295860" />
    <path d="M1.29102 26.8629C1.95175 26.7405 4.20332 26.7595 4.82001 26.9542C5.47905 27.161 6.49556 28.3688 6.90386 28.9616C7.05633 29.1821 7.15968 29.2941 7.15121 29.5922C7.14274 29.8593 6.41932 32.8678 6.2787 32.9677C4.37105 32.823 0.369381 33.9878 0.057651 31.1551C-0.015199 30.4951 -0.0202815 28.8461 0.0695103 28.2C0.159302 27.5538 0.677723 26.9783 1.29271 26.8646L1.29102 26.8629Z" fill="#295860" />
    <path d="M58.485 26.8646C59.1051 26.7578 61.1093 26.7509 61.7226 26.8646C62.1021 26.9352 62.5714 27.2799 62.7561 27.6193C63.0424 28.1431 63.0356 30.6002 62.9458 31.274C62.8086 32.3044 61.9852 32.9436 60.9958 33.0315C60.0809 33.1142 57.9344 33.1452 57.0534 33.0315C56.9145 33.0143 56.7688 33.0436 56.6773 32.8988L55.876 29.3786C56.5198 28.5187 57.3669 27.0576 58.4867 26.8646H58.485Z" fill="#295860" />
    <path d="M16.2879 57.7888V60.3045C16.2879 60.8886 15.3375 61.7381 14.7733 61.8587C13.9059 62.0448 9.68567 62.0413 8.7725 61.8845C8.1626 61.7794 7.15625 60.9265 7.15625 60.3028V57.787H16.2862L16.2879 57.7888Z" fill="#295860" />
    <path d="M55.854 57.7888V60.3045C55.854 60.8886 54.9035 61.7381 54.3393 61.8587C53.4719 62.0448 49.2517 62.0413 48.3385 61.8845C47.7286 61.7794 46.7223 60.9265 46.7223 60.3028V57.787H55.8523L55.854 57.7888Z" fill="#295860" />
    <path d="M15.2731 48.5014H9.18591V50.5656H15.2731V48.5014Z" fill="#295860" />
    <path d="M53.826 48.5014H47.7388V50.5656H53.826V48.5014Z" fill="#295860" />
  </g>
  <defs>
    <clipPath id="clip0_32_537">
      <rect width="63" height="62" fill="white" />
    </clipPath>
  </defs>
</svg>
