<svg width="40" height="33" viewBox="0 0 40 33" fill="none" xmlns="http://www.w3.org/2000/svg">
  <g clip-path="url(#clip0_27_173)">
    <path d="M39.9969 21.4554C39.9958 21.4699 39.929 21.5175 39.9249 21.5785C39.7798 23.3541 39.4176 25.107 38.7507 26.7646L32.1232 26.8164L27.678 32.9979L12.6904 33.0021L12.4618 32.9183L8.04801 26.8391L1.24723 26.7657C0.512459 24.928 0.134638 22.963 0.00104371 20.9918H3.51624V18.6678H0C0.127332 15.9557 0.899674 13.3689 2.03209 10.9227L5.11833 12.6073L6.31964 10.6496L3.28141 8.90706C4.72903 6.67098 6.72772 4.63978 9.02074 3.25219L10.6635 6.1205L10.8796 6.18569C11.2459 5.84836 12.3763 5.46551 12.6539 5.14991C12.6956 5.10335 12.7489 5.07438 12.7363 4.99884L11.0142 2.01568C13.4596 0.88367 16.1033 0.0672582 18.8264 0V3.48501H21.1695V0C23.8935 0.0713972 26.5393 0.874357 28.9816 2.01464L27.2595 4.9978C27.247 5.07334 27.3002 5.10231 27.3419 5.14888C27.4098 5.22545 29.0171 6.15775 29.1162 6.18362C29.2102 6.20845 29.2759 6.20328 29.3323 6.11843L30.9375 3.2553C31.0241 3.23253 31.0888 3.2553 31.1671 3.29255C31.6305 3.50881 32.8861 4.56839 33.3192 4.95435C34.5915 6.08739 35.7699 7.45532 36.7123 8.86878L33.6762 10.6475L34.8775 12.6052L37.9637 10.9207C39.021 13.165 39.7151 15.5201 39.9238 18.0004C39.929 18.0614 39.9948 18.109 39.9958 18.1235V18.6657H36.4806V20.9897H39.9958C39.9885 21.1429 40.0063 21.3012 39.9958 21.4543L39.9969 21.4554ZM8.6711 19.8288C8.74625 12.6735 15.1995 7.33943 22.3583 8.69804C27.2376 9.62414 31.0523 13.8831 31.4813 18.7837C31.5116 19.1241 31.3759 19.5711 31.5992 19.8288H33.7868C33.8661 19.7708 33.8714 19.7615 33.8714 19.6705C33.8839 14.7844 30.9761 10.1198 26.6907 7.81023C20.7906 4.62944 13.4304 6.15051 9.29941 11.3511C7.41135 13.7279 6.36138 16.6604 6.34051 19.7005L6.44488 19.8288H8.6711ZM20.6894 19.4283C16.5312 18.9099 14.16 24.1623 17.4612 26.7978C20.799 29.4612 25.5123 26.0641 24.0209 22.0752C23.7568 21.3685 23.3101 20.9266 22.8436 20.3658L25.8588 13.6669L25.7795 13.5168L23.7464 12.659L20.6894 19.4294V19.4283Z" fill="#295860" />
    <path d="M19.7438 21.7834C22.4324 21.356 22.6745 25.2032 20.2614 25.3987C17.9945 25.5819 17.5332 22.1352 19.7438 21.7834Z" fill="#295860" />
  </g>
  <defs>
    <clipPath id="clip0_27_173">
      <rect width="40" height="33" fill="white" />
    </clipPath>
  </defs>
</svg>
