<svg width="22" height="22" viewBox="0 0 22 22" fill="none" xmlns="http://www.w3.org/2000/svg">
  <path d="M18.876 16.3018C18.876 17.1358 18.5447 17.9356 17.955 18.5253C17.3653 19.115 16.5655 19.4463 15.7315 19.4463H5.66088C4.82691 19.4463 4.0271 19.115 3.43739 18.5253C2.84769 17.9356 2.51639 17.1358 2.51639 16.3018V6.23708C2.51562 5.82365 2.59638 5.41412 2.75406 5.03193C2.91174 4.64974 3.14323 4.3024 3.4353 4.00978C3.72737 3.71716 4.07428 3.48501 4.45617 3.32662C4.83807 3.16823 5.24744 3.0867 5.66088 3.0867H11.3245V1.83008H5.66088C5.08193 1.82931 4.50851 1.94277 3.97348 2.16396C3.43844 2.38516 2.95231 2.70975 2.54293 3.11913C2.13355 3.52851 1.80896 4.01465 1.58776 4.54968C1.36656 5.08471 1.2531 5.65813 1.25388 6.23708V16.3018C1.2531 16.8808 1.36656 17.4542 1.58776 17.9892C1.80896 18.5242 2.13355 19.0104 2.54293 19.4198C2.95231 19.8291 3.43844 20.1537 3.97348 20.3749C4.50851 20.5961 5.08193 20.7096 5.66088 20.7088H15.7256C16.3046 20.7096 16.878 20.5961 17.413 20.3749C17.948 20.1537 18.4342 19.8291 18.8436 19.4198C19.2529 19.0104 19.5775 18.5242 19.7987 17.9892C20.0199 17.4542 20.1334 16.8808 20.1326 16.3018V10.6382H18.876V16.3018Z" fill="white" />
  <path d="M19.5014 1.83008H13.8378V3.08669H17.9675L10.2508 10.827L11.1416 11.7178L18.876 3.97753V8.10725H20.1326V2.46134C20.1326 2.29392 20.0661 2.13335 19.9477 2.01497C19.8293 1.89659 19.6688 1.83008 19.5014 1.83008Z" fill="white" />
</svg>
