<svg width="19" height="17" viewBox="0 0 19 17" fill="none" xmlns="http://www.w3.org/2000/svg">
  <g clip-path="url(#clip0_190_1978)">
    <path d="M2.77228 8.28084C3.30273 8.31848 3.63278 8.66064 3.91697 9.08155C4.39817 9.79309 5.05713 10.8671 5.45511 11.6255C5.69458 12.0823 5.80554 12.5177 5.92895 13.0156C8.10906 14.3646 10.917 14.3507 13.0932 13.0034C13.1656 12.4783 13.34 11.9995 13.5891 11.5392C14.0108 10.76 14.6664 9.67556 15.1691 8.95186C15.4561 8.53848 15.7528 8.36479 16.243 8.26405C17.1041 3.42453 12.9743 -0.768299 8.22851 0.119246C4.56404 0.804735 2.02727 4.5205 2.77172 8.28084H2.77228ZM4.71576 5.85848C4.92183 4.67103 5.71496 3.54264 6.67339 2.86294C9.46604 0.881736 13.3388 2.31466 14.2458 5.62689C14.2429 5.73747 13.9616 5.82547 13.8676 5.84284C13.3105 5.9459 12.7507 5.53773 12.2349 5.34146C10.5428 4.69882 8.72726 4.64034 7.00117 5.19094C6.37165 5.39183 5.61815 5.89263 4.98806 5.90942C4.89296 5.91174 4.80351 5.89321 4.71633 5.85848H4.71576ZM8.49855 8.57727C7.25479 7.3053 9.00466 5.22973 10.3911 6.40328C11.9219 7.69899 9.87025 9.97951 8.49855 8.57727ZM13.1101 8.04C13.2953 8.04347 13.9604 8.11874 14.0754 8.227C14.2056 8.34974 14.2163 8.50838 14.1761 8.67164C13.9372 9.64545 12.9414 10.7733 12.1251 11.2978C11.8245 11.4912 11.0806 11.9978 10.8394 11.5363C10.7472 11.3598 10.9142 10.5643 10.9708 10.3344C11.1004 9.80872 11.7588 8.94839 12.1296 8.52922C12.4212 8.20037 12.6499 8.03247 13.1101 8.04058V8.04ZM6.03368 8.03942C6.41411 8.06547 6.63207 8.25769 6.8721 8.52922C7.27348 8.98254 7.8979 9.79135 8.03887 10.3692C8.09604 10.6025 8.25852 11.3528 8.16228 11.5363C7.98339 11.8779 7.65277 11.7071 7.39519 11.5908C6.51997 11.1953 5.68439 10.3796 5.21281 9.53198C5.04015 9.22165 4.57819 8.43658 4.97731 8.19284C5.10412 8.11526 5.86215 8.02726 6.03311 8.03884L6.03368 8.03942Z" fill="white" />
    <path d="M16.959 7.03265L16.873 8.38916C17.5761 8.79211 17.7708 9.36586 17.5727 10.1527C17.4068 10.8138 17.0858 11.4426 16.9528 12.1188C16.719 12.4222 16.3974 12.2323 16.4042 11.8647C16.4172 11.2139 17.1192 10.0925 17.0332 9.53492C16.9318 8.87954 16.0708 8.71222 15.7107 9.24544C15.0042 10.7542 13.461 12.0308 13.7497 13.8453C13.9252 14.9476 14.6725 15.8676 14.4573 17L17.7844 16.9572C17.9514 16.9381 18.1631 16.8721 18.1863 16.6718C18.2096 16.4714 17.8812 15.7234 17.8252 15.442C17.4674 13.6461 19.1578 12.3481 18.988 10.6135C18.9432 10.1567 18.4026 8.27394 18.1954 7.87041C17.9474 7.38698 17.4742 7.11371 16.959 7.03323V7.03265Z" fill="white" />
    <path d="M4.54256 17C4.27819 15.8085 5.20152 14.7872 5.30003 13.6357C5.4359 12.0488 3.91983 10.5996 3.28975 9.24544C2.76609 8.61032 1.81728 8.9797 1.97692 9.85161C2.08222 10.4259 2.5855 11.3187 2.59625 11.8647C2.60361 12.2323 2.28149 12.4222 2.04769 12.1188C1.89653 11.449 1.59196 10.8156 1.42779 10.1527C1.3106 9.68024 1.284 9.36123 1.54101 8.92585C1.69217 8.66937 1.88691 8.54432 2.12751 8.38916L2.04146 7.03265C1.51214 7.10734 1.0349 7.39914 0.789776 7.89762C0.584276 8.31563 0.0475979 10.1915 0.00796938 10.6517C-0.138089 12.3631 1.53082 13.6554 1.17417 15.4415C1.11586 15.7333 0.77902 16.4998 0.81978 16.7082C0.848652 16.853 0.957347 16.8987 1.08699 16.9143C1.63555 16.9803 2.48813 16.9433 3.07745 16.9589C3.56601 16.9717 4.0574 16.9236 4.54086 17H4.54256Z" fill="white" />
    <path d="M9.72405 6.7391C8.47973 6.47915 8.36424 8.29708 9.44326 8.37351C10.4481 8.44472 10.5919 6.92032 9.72405 6.7391Z" fill="white" />
  </g>
  <defs>
    <clipPath id="clip0_190_1978">
      <rect width="19" height="17" fill="white" transform="matrix(-1 0 0 1 19 0)" />
    </clipPath>
  </defs>
</svg>
