<svg width="47" height="54" viewBox="0 0 47 54" fill="none" xmlns="http://www.w3.org/2000/svg">
  <g clip-path="url(#clip0_112_922)">
    <path d="M30.1673 0.223429C32.0695 0.399874 34.2974 2.46363 34.2974 4.4385V6.46827H44.0537C44.5166 6.46827 45.5304 7.10217 45.8601 7.45767C47.6924 9.43647 46.283 12.6491 43.6451 12.717L2.97387 12.7013C0.464007 12.3851 -0.71011 9.26917 1.1002 7.40147C1.41313 7.07864 2.43466 6.46827 2.85879 6.46827H12.6151V4.4385C12.6151 2.4218 14.8456 0.439084 16.7452 0.223429C20.9011 -0.248397 25.9209 0.576319 30.1673 0.223429ZM15.7133 4.54175C15.606 5.06586 15.7922 5.90234 15.7133 6.46696H31.2005V4.54175C31.2005 4.49601 30.7958 3.8399 30.7091 3.75886C30.4596 3.53014 30.0432 3.3733 29.7083 3.33932C25.745 2.94329 21.1378 3.64777 17.1046 3.34193C16.5654 3.3746 15.8193 4.02288 15.7133 4.54045V4.54175Z" fill="#FF2D55" />
    <path d="M43.486 15.833L40.8016 48.5603C40.7357 51.1442 38.9952 53.2354 36.4129 53.502L10.7026 53.5086C8.49531 53.3988 6.61 51.7716 6.24535 49.5719L3.42773 15.833H43.486ZM13.8267 18.979C12.8336 19.1828 12.5853 20.0925 12.6125 20.9891C12.734 25.1022 13.1853 29.2585 13.4413 33.369C13.6741 37.1044 13.74 40.8803 14.0633 44.6053C14.1512 45.6143 14.0943 46.8951 15.2982 47.2101C16.5719 47.5434 17.3064 46.5122 17.2676 45.3294C17.062 38.9865 16.4387 32.4267 16.0249 26.0812C15.906 24.2632 15.9965 21.9171 15.69 20.1749C15.5413 19.3279 14.6426 18.8104 13.8267 18.9776V18.979ZM24.5579 19.4063C23.6088 18.4496 22.0933 19.0992 21.9058 20.3578V45.8587C22.2757 47.7212 24.6381 47.7212 25.0079 45.8587L24.9265 20.0246C24.8036 19.8455 24.7028 19.554 24.5579 19.4076V19.4063ZM31.6479 19.4063C31.1475 19.9082 31.1565 20.912 31.0983 21.6099C30.7841 25.3388 30.7091 29.1095 30.4764 32.8462C30.2203 36.9567 29.7691 41.113 29.6475 45.2261C29.5673 47.9225 32.4794 47.6924 32.7431 45.9528C33.0121 37.6311 34.0556 29.3042 34.3013 20.9878C34.3207 20.3448 34.2547 19.6965 33.7142 19.2822C33.113 18.8221 32.191 18.8613 31.6479 19.4063Z" fill="#FF2D55" />
  </g>
  <defs>
    <clipPath id="clip0_112_922">
      <rect width="46.4655" height="53.4353" fill="white" transform="translate(0.223633 0.0732422)" />
    </clipPath>
  </defs>
</svg>
