<svg width="18" height="18" viewBox="0 0 18 18" fill="none" xmlns="http://www.w3.org/2000/svg">
<path d="M16.7604 17.1741C17.3383 17.0537 17.6837 16.4486 17.3959 15.9315C16.7614 14.7935 15.7627 13.7927 14.4855 13.0305C12.8398 12.0486 10.8225 11.5157 8.74965 11.5157C6.67682 11.5157 4.65948 12.0475 3.01378 13.0305C1.73659 13.7927 0.737859 14.7935 0.103448 15.9315C-0.184444 16.4486 0.161027 17.0537 0.738906 17.1741C6.02229 18.2753 11.476 18.2753 16.7593 17.1741" fill="#AAAAAA"/>
<path d="M8.74962 10.4688C11.6405 10.4688 13.984 8.1253 13.984 5.23441C13.984 2.34353 11.6405 0 8.74962 0C5.85874 0 3.51521 2.34353 3.51521 5.23441C3.51521 8.1253 5.85874 10.4688 8.74962 10.4688Z" fill="#AAAAAA"/>
</svg>
